<svg width="25" height="24" viewBox="0 0 25 24" fill="none" xmlns="http://www.w3.org/2000/svg">
<path d="M23.0656 11.4188L20.75 12.5719L17.75 6.83438L20.0938 5.66251C20.2679 5.57372 20.4701 5.55741 20.6563 5.61712C20.8425 5.67683 20.9975 5.80772 21.0875 5.98126L23.3937 10.3969C23.4405 10.4853 23.4691 10.5821 23.4779 10.6817C23.4867 10.7813 23.4755 10.8817 23.4449 10.9769C23.4143 11.0721 23.365 11.1603 23.2999 11.2362C23.2348 11.312 23.1551 11.3741 23.0656 11.4188V11.4188Z" stroke="#5395D2" stroke-width="1.5" stroke-linecap="round" stroke-linejoin="round"/>
<path d="M4.24996 12.4781L1.93434 11.3156C1.84518 11.2719 1.76571 11.2107 1.70067 11.1357C1.63563 11.0607 1.58634 10.9734 1.55573 10.8789C1.52512 10.7844 1.51381 10.6848 1.52248 10.5859C1.53116 10.487 1.55963 10.3908 1.60621 10.3031L3.91246 5.88749C4.00268 5.71408 4.15703 5.58275 4.34265 5.52146C4.52827 5.46017 4.73048 5.47377 4.90621 5.55937L7.24996 6.73124L4.24996 12.4781Z" stroke="#5395D2" stroke-width="1.5" stroke-linecap="round" stroke-linejoin="round"/>
<path d="M20.75 12.5719L19.25 14.3344L15.8 17.7844C15.706 17.8723 15.592 17.9361 15.468 17.9704C15.3439 18.0047 15.2133 18.0084 15.0875 17.9812L9.65 16.6219C9.55067 16.5942 9.45812 16.5463 9.37812 16.4812L4.25 12.4781" stroke="#5395D2" stroke-width="1.5" stroke-linecap="round" stroke-linejoin="round"/>
<path d="M19.25 14.3344L15.125 11.3344L13.925 12.2344C13.4051 12.6224 12.7737 12.8321 12.125 12.8321C11.4762 12.8321 10.8449 12.6224 10.325 12.2344L9.81871 11.85C9.7331 11.7849 9.6623 11.7024 9.61097 11.6079C9.55965 11.5134 9.52899 11.4091 9.52101 11.3018C9.51304 11.1946 9.52793 11.0869 9.5647 10.9858C9.60148 10.8848 9.6593 10.7927 9.73434 10.7156L13.4093 7.05001C13.4784 6.98132 13.5603 6.92691 13.6504 6.88991C13.7404 6.85291 13.8369 6.83404 13.9343 6.83439H17.75" stroke="#5395D2" stroke-width="1.5" stroke-linecap="round" stroke-linejoin="round"/>
<path d="M7.30627 6.73124L12.1156 5.32499C12.2865 5.27598 12.4693 5.28927 12.6313 5.36249L15.875 6.83436" stroke="#5395D2" stroke-width="1.5" stroke-linecap="round" stroke-linejoin="round"/>
<path d="M11 19.9594L8.17813 19.2469C8.06313 19.2209 7.95666 19.166 7.86875 19.0875L5.75 17.25" stroke="#5395D2" stroke-width="1.5" stroke-linecap="round" stroke-linejoin="round"/>
</svg>
