<svg width="44" height="45" viewBox="0 0 44 45" fill="none" xmlns="http://www.w3.org/2000/svg">
<path d="M22 39C31.1127 39 38.5 31.6127 38.5 22.5C38.5 13.3873 31.1127 6 22 6C12.8873 6 5.5 13.3873 5.5 22.5C5.5 31.6127 12.8873 39 22 39Z" stroke="#53E962" stroke-width="3" stroke-linecap="round" stroke-linejoin="round"/>
<path d="M15.8125 21.8125C17.3313 21.8125 18.5625 20.5813 18.5625 19.0625C18.5625 17.5437 17.3313 16.3125 15.8125 16.3125C14.2937 16.3125 13.0625 17.5437 13.0625 19.0625C13.0625 20.5813 14.2937 21.8125 15.8125 21.8125Z" fill="#53E962"/>
<path d="M26.125 19.0625H30.25" stroke="#53E962" stroke-width="3" stroke-linecap="round" stroke-linejoin="round"/>
<path d="M29.15 26.625C28.4231 27.8773 27.3801 28.9167 26.1253 29.6392C24.8705 30.3617 23.4479 30.742 22 30.742C20.552 30.742 19.1295 30.3617 17.8747 29.6392C16.6199 28.9167 15.5769 27.8773 14.85 26.625" stroke="#53E962" stroke-width="3" stroke-linecap="round" stroke-linejoin="round"/>
</svg>
