<svg width="25" height="24" viewBox="0 0 25 24" fill="none" xmlns="http://www.w3.org/2000/svg">
<path d="M12.5 21C17.4706 21 21.5 16.9706 21.5 12C21.5 7.02944 17.4706 3 12.5 3C7.52944 3 3.5 7.02944 3.5 12C3.5 16.9706 7.52944 21 12.5 21Z" stroke="#5395D2" stroke-width="1.5" stroke-linecap="round" stroke-linejoin="round"/>
<path d="M9.125 11.0625C9.64277 11.0625 10.0625 10.6428 10.0625 10.125C10.0625 9.60723 9.64277 9.1875 9.125 9.1875C8.60723 9.1875 8.1875 9.60723 8.1875 10.125C8.1875 10.6428 8.60723 11.0625 9.125 11.0625Z" fill="#5395D2"/>
<path d="M14.75 10.125H17" stroke="#5395D2" stroke-width="1.5" stroke-linecap="round" stroke-linejoin="round"/>
<path d="M16.4 14.25C16.0035 14.9331 15.4346 15.5 14.7501 15.8941C14.0657 16.2882 13.2898 16.4956 12.5 16.4956C11.7102 16.4956 10.9342 16.2882 10.2498 15.8941C9.56538 15.5 8.99645 14.9331 8.59998 14.25" stroke="#5395D2" stroke-width="1.5" stroke-linecap="round" stroke-linejoin="round"/>
</svg>
