<svg width="25" height="24" viewBox="0 0 25 24" fill="none" xmlns="http://www.w3.org/2000/svg">
<path d="M12.9125 17.8781L17.6375 20.8781C18.2469 21.2625 18.9969 20.6906 18.8187 19.9875L17.45 14.6062C17.413 14.4571 17.4189 14.3005 17.467 14.1545C17.5151 14.0086 17.6034 13.8792 17.7219 13.7812L21.9594 10.2469C22.5125 9.78749 22.2312 8.85937 21.5094 8.81249L15.9781 8.45624C15.8272 8.44746 15.6821 8.39491 15.5606 8.305C15.439 8.2151 15.3463 8.09174 15.2937 7.94999L13.2312 2.75624C13.1767 2.60615 13.0772 2.4765 12.9464 2.38488C12.8156 2.29326 12.6597 2.24411 12.5 2.24411C12.3403 2.24411 12.1844 2.29326 12.0536 2.38488C11.9228 2.4765 11.8233 2.60615 11.7687 2.75624L9.70625 7.94999C9.65368 8.09174 9.56096 8.2151 9.43943 8.305C9.31789 8.39491 9.17279 8.44746 9.02187 8.45624L3.49062 8.81249C2.76875 8.85937 2.4875 9.78749 3.04062 10.2469L7.27812 13.7812C7.39656 13.8792 7.48492 14.0086 7.53302 14.1545C7.58112 14.3005 7.58701 14.4571 7.55 14.6062L6.28437 19.5937C6.06875 20.4375 6.96875 21.1219 7.69062 20.6625L12.0875 17.8781C12.2108 17.7997 12.3539 17.7581 12.5 17.7581C12.6461 17.7581 12.7892 17.7997 12.9125 17.8781V17.8781Z" stroke="#5395D2" stroke-width="1.5" stroke-linecap="round" stroke-linejoin="round"/>
</svg>
