<svg width="61" height="61" viewBox="0 0 61 61" fill="none" xmlns="http://www.w3.org/2000/svg">
<path d="M8 24.875H19.25V49.25H8C7.50272 49.25 7.02581 49.0525 6.67417 48.7008C6.32254 48.3492 6.125 47.8723 6.125 47.375V26.75C6.125 26.2527 6.32254 25.7758 6.67417 25.4242C7.02581 25.0725 7.50272 24.875 8 24.875V24.875Z" stroke="#53E962" stroke-width="3" stroke-linecap="round" stroke-linejoin="round"/>
<path d="M19.25 24.875L28.625 6.125C30.6141 6.125 32.5218 6.91518 33.9283 8.3217C35.3348 9.72822 36.125 11.6359 36.125 13.625V19.25H50.6328C51.1645 19.2487 51.6904 19.3612 52.175 19.5799C52.6597 19.7987 53.0919 20.1186 53.4427 20.5182C53.7935 20.9178 54.0547 21.3879 54.2087 21.8968C54.3628 22.4057 54.4062 22.9417 54.3359 23.4688L51.5234 45.9688C51.4096 46.872 50.9712 47.703 50.2898 48.3067C49.6084 48.9105 48.7307 49.2458 47.8203 49.25H19.25" stroke="#53E962" stroke-width="3" stroke-linecap="round" stroke-linejoin="round"/>
</svg>
