<svg width="32" height="33" viewBox="0 0 32 33" fill="none" xmlns="http://www.w3.org/2000/svg">
<path d="M16 23C18.7614 23 21 20.7614 21 18C21 15.2386 18.7614 13 16 13C13.2386 13 11 15.2386 11 18C11 20.7614 13.2386 23 16 23Z" stroke="#53E962" stroke-width="2" stroke-linecap="round" stroke-linejoin="round"/>
<path d="M24.5 15C25.6647 14.9981 26.8137 15.2683 27.8554 15.7892C28.8972 16.31 29.8028 17.0671 30.5 18" stroke="#53E962" stroke-width="2" stroke-linecap="round" stroke-linejoin="round"/>
<path d="M1.5 18C2.19725 17.0671 3.10285 16.31 4.14457 15.7892C5.1863 15.2683 6.33532 14.9981 7.5 15" stroke="#53E962" stroke-width="2" stroke-linecap="round" stroke-linejoin="round"/>
<path d="M8.79999 27.5C9.45852 26.1513 10.4826 25.0148 11.7555 24.2197C13.0285 23.4247 14.4992 23.0032 16 23.0032C17.5008 23.0032 18.9715 23.4247 20.2444 24.2197C21.5174 25.0148 22.5415 26.1513 23.2 27.5" stroke="#53E962" stroke-width="2" stroke-linecap="round" stroke-linejoin="round"/>
<path d="M7.49997 15C6.74077 15.0008 5.99703 14.7855 5.35566 14.3792C4.71428 13.973 4.20175 13.3927 3.87795 12.706C3.55416 12.0193 3.43247 11.2546 3.52711 10.5014C3.62176 9.74809 3.92881 9.0373 4.41241 8.45206C4.89601 7.86681 5.53618 7.43127 6.25811 7.19634C6.98004 6.9614 7.75393 6.93677 8.48934 7.12532C9.22475 7.31388 9.89131 7.70782 10.4111 8.26113C10.931 8.81444 11.2826 9.50427 11.425 10.25" stroke="#53E962" stroke-width="2" stroke-linecap="round" stroke-linejoin="round"/>
<path d="M20.575 10.25C20.7174 9.50427 21.069 8.81444 21.5888 8.26113C22.1087 7.70782 22.7752 7.31388 23.5106 7.12532C24.2461 6.93677 25.0199 6.9614 25.7419 7.19634C26.4638 7.43127 27.104 7.86681 27.5876 8.45206C28.0712 9.0373 28.3782 9.74809 28.4729 10.5014C28.5675 11.2546 28.4458 12.0193 28.122 12.706C27.7982 13.3927 27.2857 13.973 26.6443 14.3792C26.0029 14.7855 25.2592 15.0008 24.5 15" stroke="#53E962" stroke-width="2" stroke-linecap="round" stroke-linejoin="round"/>
</svg>
