<svg width="25" height="24" viewBox="0 0 25 24" fill="none" xmlns="http://www.w3.org/2000/svg"><path d="M23.066 11.419l-2.316 1.153-3-5.738 2.344-1.171a.74.74 0 01.993.318l2.307 4.416a.75.75 0 01-.328 1.022v0zM4.25 12.478l-2.316-1.162a.741.741 0 01-.328-1.013l2.306-4.416a.75.75 0 01.994-.328L7.25 6.731l-3 5.747z" stroke="#5395D2" stroke-width="1.5" stroke-linecap="round" stroke-linejoin="round"/><path d="M20.75 12.572l-1.5 1.762-3.45 3.45a.797.797 0 01-.713.197l-5.437-1.36a.75.75 0 01-.272-.14L4.25 12.478" stroke="#5395D2" stroke-width="1.5" stroke-linecap="round" stroke-linejoin="round"/><path d="M19.25 14.334l-4.125-3-1.2.9a3.01 3.01 0 01-3.6 0l-.506-.384a.76.76 0 01-.085-1.134L13.41 7.05a.742.742 0 01.525-.216h3.816" stroke="#5395D2" stroke-width="1.5" stroke-linecap="round" stroke-linejoin="round"/><path d="M7.306 6.731l4.81-1.406a.75.75 0 01.515.037l3.244 1.472M11 19.96l-2.822-.713a.695.695 0 01-.31-.16L5.75 17.25" stroke="#5395D2" stroke-width="1.5" stroke-linecap="round" stroke-linejoin="round"/></svg>