<svg width="32" height="33" viewBox="0 0 32 33" fill="none" xmlns="http://www.w3.org/2000/svg"><path d="M11.762 23.575c-1.425 4.238-7.075 4.238-7.075 4.238s0-5.65 4.238-7.075m15.563-7.063L16 22.163 10.338 16.5l8.487-8.487c3.213-3.213 6.425-3.175 7.8-2.975a.975.975 0 01.837.837c.2 1.375.238 4.588-2.974 7.8z" stroke="#53E962" stroke-width="2" stroke-linecap="round" stroke-linejoin="round"/><path d="M23.075 15.087v8.075a1 1 0 01-.3.7l-4.037 4.05a1 1 0 01-1.688-.512L16 22.162m1.413-12.737H9.338a1 1 0 00-.7.3l-4.05 4.037A1 1 0 005.1 15.45l5.238 1.05" stroke="#53E962" stroke-width="2" stroke-linecap="round" stroke-linejoin="round"/></svg>