<?xml version="1.0" encoding="utf-8"?><svg viewBox="0 0 62 62" xmlns="http://www.w3.org/2000/svg" xmlns:xlink="http://www.w3.org/1999/xlink"><style>:root>svg{display:none}:root>svg:target{display:block}</style><svg fill="none" viewBox="0 0 32 32" id="Facebook" xmlns="http://www.w3.org/2000/svg"><g clip-path="url(#aclip0_93_1422)"><path d="M32 16c0-8.837-7.163-16-16-16S0 7.163 0 16c0 7.986 5.85 14.605 13.5 15.806V20.625H9.437V16H13.5v-3.525c0-4.01 2.389-6.225 6.043-6.225 1.75 0 3.582.313 3.582.313V10.5h-2.017c-1.988 0-2.608 1.233-2.608 2.5v3h4.438l-.71 4.625H18.5v11.18C26.15 30.606 32 23.986 32 16z" fill="#1877F2"/><path d="M22.228 20.625l.71-4.625H18.5v-3c0-1.265.62-2.5 2.608-2.5h2.017V6.562s-1.83-.312-3.582-.312c-3.654 0-6.043 2.215-6.043 6.225V16H9.437v4.625H13.5v11.18c1.657.26 3.343.26 5 0v-11.18h3.728z" fill="#fff"/></g><defs><clipPath id="aclip0_93_1422"><path fill="#fff" d="M0 0h32v32H0z"/></clipPath></defs></svg><svg fill="none" viewBox="0 0 32 32" id="Instagram" xmlns="http://www.w3.org/2000/svg"><g clip-path="url(#bclip0_93_1418)" fill="#000100"><path d="M16 2.881c4.275 0 4.781.019 6.462.094 1.563.069 2.407.331 2.97.55a4.949 4.949 0 011.837 1.194 4.921 4.921 0 011.194 1.837c.218.563.48 1.413.55 2.969.074 1.688.093 2.194.093 6.463 0 4.274-.019 4.78-.094 6.462-.068 1.563-.33 2.406-.55 2.969a4.95 4.95 0 01-1.193 1.837 4.922 4.922 0 01-1.838 1.194c-.562.219-1.412.481-2.969.55-1.687.075-2.193.094-6.462.094-4.275 0-4.781-.019-6.463-.094-1.562-.069-2.406-.331-2.968-.55a4.949 4.949 0 01-1.838-1.194 4.922 4.922 0 01-1.193-1.837c-.22-.563-.482-1.413-.55-2.969-.075-1.688-.094-2.194-.094-6.462 0-4.275.018-4.782.093-6.463.07-1.563.332-2.406.55-2.969A4.948 4.948 0 014.732 4.72 4.921 4.921 0 016.57 3.525c.562-.219 1.412-.481 2.968-.55C11.22 2.9 11.726 2.881 16 2.881zM16 0c-4.344 0-4.887.019-6.594.094-1.7.075-2.869.35-3.881.744-1.056.412-1.95.956-2.838 1.85-.893.887-1.437 1.78-1.85 2.83C.444 6.539.17 7.7.094 9.4.019 11.113 0 11.656 0 16c0 4.344.019 4.887.094 6.594.075 1.7.35 2.868.744 3.881.412 1.056.956 1.95 1.85 2.837a7.82 7.82 0 002.83 1.844c1.02.394 2.182.669 3.882.744 1.706.075 2.25.094 6.594.094 4.343 0 4.887-.019 6.593-.094 1.7-.075 2.87-.35 3.882-.744a7.82 7.82 0 002.831-1.843 7.822 7.822 0 001.844-2.832c.394-1.019.669-2.181.744-3.881.074-1.706.093-2.25.093-6.594s-.019-4.887-.094-6.594c-.075-1.7-.35-2.868-.743-3.88a7.494 7.494 0 00-1.831-2.845A7.82 7.82 0 0026.48.845C25.462.45 24.3.175 22.6.1 20.887.019 20.344 0 16 0z"/><path d="M16 7.781A8.22 8.22 0 007.781 16 8.22 8.22 0 0016 24.219 8.22 8.22 0 0024.219 16 8.22 8.22 0 0016 7.781zm0 13.55a5.332 5.332 0 11.001-10.664A5.332 5.332 0 0116 21.331zM26.462 7.456a1.92 1.92 0 11-3.838 0 1.92 1.92 0 013.838 0z"/></g><defs><clipPath id="bclip0_93_1418"><path fill="#fff" d="M0 0h32v32H0z"/></clipPath></defs></svg><svg fill="none" viewBox="0 0 32 33" id="RocketLaunch" xmlns="http://www.w3.org/2000/svg"><path d="M11.762 23.575c-1.425 4.238-7.075 4.238-7.075 4.238s0-5.65 4.238-7.075M24.488 13.675L16 22.163 10.338 16.5l8.487-8.487c3.213-3.213 6.425-3.175 7.8-2.975a.975.975 0 01.837.837c.2 1.375.238 4.588-2.974 7.8z" stroke="#53E962" stroke-width="2" stroke-linecap="round" stroke-linejoin="round"/><path d="M23.075 15.087v8.075a1 1 0 01-.3.7l-4.037 4.05a1 1 0 01-1.688-.512L16 22.162M17.413 9.425H9.338a1 1 0 00-.7.3l-4.05 4.037A1 1 0 005.1 15.45l5.238 1.05" stroke="#53E962" stroke-width="2" stroke-linecap="round" stroke-linejoin="round"/></svg><svg fill="none" viewBox="0 0 32 32" id="Telegram" xmlns="http://www.w3.org/2000/svg"><g clip-path="url(#dclip0_93_1400)"><path d="M16 32c8.837 0 16-7.163 16-16S24.837 0 16 0 0 7.163 0 16s7.163 16 16 16z" fill="url(#dpaint0_linear_93_1400)"/><path fill-rule="evenodd" clip-rule="evenodd" d="M7.242 15.831c4.665-2.032 7.775-3.372 9.331-4.019 4.444-1.848 5.367-2.17 5.969-2.18.132-.002.428.03.62.186a.674.674 0 01.228.434c.02.124.047.408.026.63-.24 2.53-1.282 8.669-1.813 11.503-.224 1.199-.665 1.6-1.093 1.64-.93.085-1.635-.614-2.535-1.204-1.408-.923-2.203-1.498-3.57-2.399-1.58-1.04-.556-1.613.344-2.548.236-.244 4.33-3.968 4.41-4.306.009-.042.018-.2-.075-.283-.094-.083-.232-.055-.332-.032-.14.032-2.39 1.52-6.748 4.46-.64.44-1.217.653-1.736.642-.57-.013-1.67-.323-2.487-.589-1.002-.325-1.798-.498-1.729-1.05.036-.289.433-.584 1.19-.885z" fill="#fff"/></g><defs><linearGradient id="dpaint0_linear_93_1400" x1="16" y1="0" x2="16" y2="31.763" gradientUnits="userSpaceOnUse"><stop stop-color="#2AABEE"/><stop offset="1" stop-color="#229ED9"/></linearGradient><clipPath id="dclip0_93_1400"><path fill="#fff" d="M0 0h32v32H0z"/></clipPath></defs></svg><svg fill="none" viewBox="0 0 32 32" id="TikTok" xmlns="http://www.w3.org/2000/svg"><path d="M22.902 11.551a12.483 12.483 0 007.301 2.345V8.638c-.515 0-1.029-.054-1.533-.16v4.138c-2.722 0-5.243-.869-7.301-2.345v10.73c0 5.368-4.336 9.719-9.684 9.719a9.613 9.613 0 01-5.392-1.644A9.638 9.638 0 0013.217 32c5.35 0 9.685-4.351 9.685-9.719v-10.73zm1.892-5.304a7.341 7.341 0 01-1.892-4.29V1.28h-1.453a7.362 7.362 0 003.345 4.967zM9.676 24.957a4.438 4.438 0 01-.904-2.691 4.438 4.438 0 015.774-4.237v-5.376c-.508-.07-1.02-.1-1.532-.088v4.184a4.438 4.438 0 00-5.774 4.237c0 1.736.99 3.239 2.436 3.971z" fill="#FF004F"/><path d="M21.369 10.271a12.485 12.485 0 007.301 2.345V8.477a7.323 7.323 0 01-3.877-2.23A7.362 7.362 0 0121.45 1.28h-3.817v21c-.009 2.45-1.988 4.432-4.43 4.432a4.418 4.418 0 01-3.526-1.755 4.447 4.447 0 01-2.437-3.971 4.438 4.438 0 015.774-4.237v-4.184c-5.254.109-9.48 4.417-9.48 9.716a9.704 9.704 0 002.76 6.795 9.615 9.615 0 005.392 1.644c5.348 0 9.684-4.351 9.684-9.719v-10.73z" fill="#000"/><path d="M28.67 8.477V7.358a7.281 7.281 0 01-3.877-1.111 7.317 7.317 0 003.877 2.23zM21.45 1.28a7.527 7.527 0 01-.08-.604V0h-5.27v21.001a4.438 4.438 0 01-4.43 4.43 4.4 4.4 0 01-1.993-.474 4.418 4.418 0 003.526 1.754 4.438 4.438 0 004.43-4.43V1.28h3.817zm-8.436 11.285v-1.192c-.44-.06-.884-.09-1.328-.09C6.335 11.283 2 15.633 2 21a9.718 9.718 0 004.294 8.075 9.703 9.703 0 01-2.76-6.795c0-5.299 4.225-9.607 9.48-9.716z" fill="#00F2EA"/></svg><svg fill="none" viewBox="0 0 32 32" id="Twitch" xmlns="http://www.w3.org/2000/svg"><path d="M27.43 14.857l-4.572 4.572h-4.571l-4 4v-4H9.144V2.285h18.285v12.571z" fill="#fff"/><path d="M8 0L2.288 5.714v20.572h6.857V32l5.714-5.714h4.572L29.715 16V0H8.001zm19.43 14.857l-4.572 4.572h-4.571l-4 4v-4H9.144V2.286h18.285v12.571z" fill="#9146FF"/><path d="M24 6.286h-2.285v6.857h2.286V6.286zM17.715 6.286H15.43v6.857h2.286V6.286z" fill="#9146FF"/></svg><svg fill="none" viewBox="0 0 32 33" id="UsersThree" xmlns="http://www.w3.org/2000/svg"><path d="M16 23a5 5 0 100-10 5 5 0 000 10zM24.5 15a7.475 7.475 0 016 3M1.5 18a7.474 7.474 0 016-3M8.8 27.5a8.013 8.013 0 0114.4 0M7.5 15a3.999 3.999 0 113.925-4.75M20.575 10.25A4 4 0 1124.5 15" stroke="#53E962" stroke-width="2" stroke-linecap="round" stroke-linejoin="round"/></svg><svg fill="none" viewBox="0 0 32 32" id="VK" xmlns="http://www.w3.org/2000/svg"><g clip-path="url(#hclip0_93_1412)"><path d="M0 15.36C0 8.12 0 4.499 2.25 2.25 4.498 0 8.12 0 15.36 0h1.28c7.24 0 10.861 0 13.11 2.25C32 4.498 32 8.12 32 15.36v1.28c0 7.24 0 10.861-2.25 13.11C27.502 32 23.88 32 16.64 32h-1.28c-7.24 0-10.861 0-13.11-2.25C0 27.502 0 23.88 0 16.64v-1.28z" fill="#07F"/><path d="M17.027 23.053c-7.294 0-11.454-5-11.627-13.32h3.653c.12 6.107 2.814 8.694 4.947 9.227V9.733h3.44V15c2.107-.227 4.32-2.627 5.066-5.267h3.44c-.573 3.254-2.973 5.654-4.68 6.64 1.707.8 4.44 2.894 5.48 6.68H22.96c-.813-2.533-2.84-4.493-5.52-4.76v4.76h-.413z" fill="#fff"/></g><defs><clipPath id="hclip0_93_1412"><path fill="#fff" d="M0 0h32v32H0z"/></clipPath></defs></svg><svg fill="none" viewBox="0 0 32 32" id="YouTube" xmlns="http://www.w3.org/2000/svg"><g clip-path="url(#iclip0_93_1415)"><path d="M31.363 8.247a4.023 4.023 0 00-2.83-2.847c-2.501-.673-12.501-.673-12.501-.673s-10 0-12.502.673A4.022 4.022 0 00.7 8.247C.033 10.76.033 16 .033 16s0 5.24.669 7.753A4.021 4.021 0 003.53 26.6c2.502.673 12.502.673 12.502.673s10 0 12.502-.673a4.022 4.022 0 002.829-2.847c.669-2.513.669-7.753.669-7.753s0-5.24-.67-7.753z" fill="#FF0302"/><path d="M12.759 20.758v-9.516L21.123 16l-8.364 4.758z" fill="#FEFEFE"/></g><defs><clipPath id="iclip0_93_1415"><path fill="#fff" d="M0 0h32v32H0z"/></clipPath></defs></svg><svg fill="none" viewBox="0 0 62 62" id="play" xmlns="http://www.w3.org/2000/svg"><rect width="62" height="62" rx="31" fill="#4BA6FA" fill-opacity=".22"/><g filter="url(#jfilter0_d_91_1275)"><path d="M40 27.536c2.667 1.54 2.667 5.389 0 6.928l-10.5 6.062c-2.667 1.54-6-.385-6-3.464V24.938c0-3.08 3.333-5.004 6-3.464L40 27.536z" fill="#4BA6FA"/></g><defs><filter id="jfilter0_d_91_1275" x="19.5" y="20.932" width="26.5" height="28.136" filterUnits="userSpaceOnUse" color-interpolation-filters="sRGB"><feFlood flood-opacity="0" result="BackgroundImageFix"/><feColorMatrix in="SourceAlpha" values="0 0 0 0 0 0 0 0 0 0 0 0 0 0 0 0 0 0 127 0" result="hardAlpha"/><feOffset dy="4"/><feGaussianBlur stdDeviation="2"/><feComposite in2="hardAlpha" operator="out"/><feColorMatrix values="0 0 0 0 0 0 0 0 0 0 0 0 0 0 0 0 0 0 0.1 0"/><feBlend in2="BackgroundImageFix" result="effect1_dropShadow_91_1275"/><feBlend in="SourceGraphic" in2="effect1_dropShadow_91_1275" result="shape"/></filter></defs></svg></svg>