<svg width="25" height="24" viewBox="0 0 25 24" fill="none" xmlns="http://www.w3.org/2000/svg"><path d="M12.912 17.878l4.725 3c.61.384 1.36-.187 1.182-.89l-1.369-5.382a.816.816 0 01.272-.825l4.237-3.534c.553-.46.272-1.388-.45-1.435l-5.53-.356a.778.778 0 01-.685-.506L13.23 2.756a.778.778 0 00-1.462 0L9.706 7.95a.778.778 0 01-.684.506l-5.531.356c-.722.047-1.004.975-.45 1.435l4.237 3.534a.816.816 0 01.272.825l-1.266 4.988c-.215.843.685 1.528 1.407 1.069l4.397-2.785a.769.769 0 01.825 0v0z" stroke="#5395D2" stroke-width="1.5" stroke-linecap="round" stroke-linejoin="round"/></svg>