<svg width="32" height="32" viewBox="0 0 32 32" fill="none" xmlns="http://www.w3.org/2000/svg"><g clip-path="url(#clip0_93_1400)"><path d="M16 32c8.837 0 16-7.163 16-16S24.837 0 16 0 0 7.163 0 16s7.163 16 16 16z" fill="url(#paint0_linear_93_1400)"/><path fill-rule="evenodd" clip-rule="evenodd" d="M7.242 15.831c4.665-2.032 7.775-3.372 9.331-4.019 4.444-1.848 5.367-2.17 5.969-2.18.132-.002.428.03.62.186a.674.674 0 01.228.434c.02.124.047.408.026.63-.24 2.53-1.282 8.669-1.813 11.503-.224 1.199-.665 1.6-1.093 1.64-.93.085-1.635-.614-2.535-1.204-1.408-.923-2.203-1.498-3.57-2.399-1.58-1.04-.556-1.613.344-2.548.236-.244 4.33-3.968 4.41-4.306.009-.042.018-.2-.075-.283-.094-.083-.232-.055-.332-.032-.14.032-2.39 1.52-6.748 4.46-.64.44-1.217.653-1.736.642-.57-.013-1.67-.323-2.487-.589-1.002-.325-1.798-.498-1.729-1.05.036-.289.433-.584 1.19-.885z" fill="#fff"/></g><defs><linearGradient id="paint0_linear_93_1400" x1="16" y1="0" x2="16" y2="31.763" gradientUnits="userSpaceOnUse"><stop stop-color="#2AABEE"/><stop offset="1" stop-color="#229ED9"/></linearGradient><clipPath id="clip0_93_1400"><path fill="#fff" d="M0 0h32v32H0z"/></clipPath></defs></svg>