<svg width="32" height="32" viewBox="0 0 32 32" fill="none" xmlns="http://www.w3.org/2000/svg"><path d="M22.902 11.551a12.483 12.483 0 007.301 2.345V8.638a7.45 7.45 0 01-1.533-.16v4.138c-2.722 0-5.243-.869-7.301-2.345v10.73c0 5.368-4.336 9.719-9.684 9.719a9.613 9.613 0 01-5.392-1.644A9.638 9.638 0 0013.217 32c5.35 0 9.685-4.351 9.685-9.719v-10.73zm1.892-5.304a7.341 7.341 0 01-1.892-4.29V1.28h-1.453a7.362 7.362 0 003.345 4.967zM9.676 24.957a4.438 4.438 0 01-.904-2.691 4.438 4.438 0 015.774-4.237v-5.376c-.508-.07-1.02-.1-1.532-.088v4.184a4.438 4.438 0 00-5.774 4.237c0 1.736.99 3.239 2.436 3.971z" fill="#FF004F"/><path d="M21.369 10.271a12.485 12.485 0 007.301 2.345V8.477a7.323 7.323 0 01-3.877-2.23A7.362 7.362 0 0121.45 1.28h-3.817v21c-.009 2.45-1.988 4.432-4.43 4.432a4.418 4.418 0 01-3.526-1.755 4.447 4.447 0 01-2.437-3.971 4.438 4.438 0 015.774-4.237v-4.184c-5.254.109-9.48 4.417-9.48 9.716a9.704 9.704 0 002.76 6.795 9.615 9.615 0 005.392 1.644c5.348 0 9.684-4.351 9.684-9.719v-10.73z" fill="#000"/><path d="M28.67 8.477V7.358a7.281 7.281 0 01-3.877-1.111 7.317 7.317 0 003.877 2.23zM21.45 1.28a7.527 7.527 0 01-.08-.604V0H16.1v21.001a4.438 4.438 0 01-4.43 4.43 4.4 4.4 0 01-1.993-.474 4.418 4.418 0 003.526 1.754 4.438 4.438 0 004.43-4.43V1.28h3.817zm-8.436 11.285v-1.192c-.44-.06-.884-.09-1.328-.09C6.335 11.283 2 15.633 2 21a9.718 9.718 0 004.294 8.075 9.703 9.703 0 01-2.76-6.795c0-5.299 4.225-9.607 9.48-9.716z" fill="#00F2EA"/></svg>