<svg width="32" height="32" viewBox="0 0 32 32" fill="none" xmlns="http://www.w3.org/2000/svg"><g clip-path="url(#clip0_93_1412)"><path d="M0 15.36C0 8.12 0 4.499 2.25 2.25 4.498 0 8.12 0 15.36 0h1.28c7.24 0 10.861 0 13.11 2.25C32 4.498 32 8.12 32 15.36v1.28c0 7.24 0 10.861-2.25 13.11C27.502 32 23.88 32 16.64 32h-1.28c-7.24 0-10.861 0-13.11-2.25C0 27.502 0 23.88 0 16.64v-1.28z" fill="#07F"/><path d="M17.027 23.053c-7.294 0-11.454-5-11.627-13.32h3.653c.12 6.107 2.814 8.694 4.947 9.227V9.733h3.44V15c2.107-.227 4.32-2.627 5.066-5.267h3.44c-.573 3.254-2.973 5.654-4.68 6.64 1.707.8 4.44 2.894 5.48 6.68H22.96c-.813-2.533-2.84-4.493-5.52-4.76v4.76h-.413z" fill="#fff"/></g><defs><clipPath id="clip0_93_1412"><path fill="#fff" d="M0 0h32v32H0z"/></clipPath></defs></svg>