<svg width="32" height="32" viewBox="0 0 32 32" fill="none" xmlns="http://www.w3.org/2000/svg"><g clip-path="url(#clip0_93_1415)"><path d="M31.363 8.247a4.023 4.023 0 00-2.83-2.847c-2.501-.673-12.501-.673-12.501-.673s-10 0-12.502.673A4.022 4.022 0 00.7 8.247C.033 10.76.033 16 .033 16s0 5.24.669 7.753A4.021 4.021 0 003.53 26.6c2.502.673 12.502.673 12.502.673s10 0 12.502-.673a4.022 4.022 0 002.829-2.847c.669-2.513.669-7.753.669-7.753s0-5.24-.67-7.753z" fill="#FF0302"/><path d="M12.759 20.758v-9.516L21.123 16l-8.364 4.758z" fill="#FEFEFE"/></g><defs><clipPath id="clip0_93_1415"><path fill="#fff" d="M0 0h32v32H0z"/></clipPath></defs></svg>