<svg width="242" height="50" viewBox="0 0 242 50" fill="none" xmlns="http://www.w3.org/2000/svg"><g clip-path="url(#clip0_91_1250)"><path d="M12.645 45.006a23.568 23.568 0 0017.921 2.364 23.625 23.625 0 0014.34-11.03 23.723 23.723 0 002.36-17.963A23.666 23.666 0 0036.262 4.002L12.645 45.006z" fill="#FD4D4D"/><path d="M36.262 4.002a23.568 23.568 0 00-17.92-2.365A23.625 23.625 0 004 12.667a23.723 23.723 0 00-2.36 17.964 23.666 23.666 0 0011.004 14.375L36.262 4.002z" fill="#53E962"/></g><path d="M70.364 18.566c4.953.272 8.306.408 10.059.408.416 0 .741-.117.976-.354.253-.254.38-.59.38-1.007v-2.45h-6.236c-1.898 0-3.281-.426-4.149-1.28-.85-.87-1.274-2.259-1.274-4.164v-.817c0-1.905.425-3.285 1.274-4.138.868-.87 2.25-1.306 4.149-1.306h9.516v3.81h-8.432c-1.084 0-1.627.545-1.627 1.634v.545c0 1.089.543 1.633 1.627 1.633h4.88c1.772 0 3.073.417 3.905 1.252.831.835 1.247 2.142 1.247 3.92v1.361c0 1.779-.416 3.085-1.247 3.92-.832.835-2.133 1.252-3.905 1.252a83.35 83.35 0 01-2.928-.054l-2.494-.109c-1.844-.09-3.75-.218-5.721-.38v-3.676zm33.103-.136c0 1.361-.389 2.432-1.166 3.212-.759.762-1.816 1.143-3.172 1.143h-6.236c-1.356 0-2.422-.38-3.2-1.143-.759-.78-1.138-1.85-1.138-3.212v-6.261c0-1.361.38-2.423 1.139-3.185.777-.78 1.843-1.17 3.199-1.17h6.236c1.356 0 2.413.39 3.172 1.17.777.762 1.166 1.824 1.166 3.185v6.261zm-4.745-5.853c0-.726-.361-1.089-1.084-1.089h-3.254c-.723 0-1.084.363-1.084 1.09v5.444c0 .726.361 1.088 1.084 1.088h3.254c.723 0 1.084-.362 1.084-1.088v-5.445zm19.925 9.664c-3.38.363-6.362.544-8.947.544-1.229 0-2.214-.372-2.955-1.116-.741-.744-1.112-1.733-1.112-2.967v-6.26c0-1.362.38-2.424 1.139-3.186.777-.78 1.843-1.17 3.199-1.17h8.676v3.675h-7.185c-.723 0-1.084.363-1.084 1.088v5.309c0 .272.09.499.271.68a.919.919 0 00.678.272c1.627 0 4.067-.136 7.32-.408v3.54zm8.129-13.611v13.883h-4.745V12.305h-2.033V8.63h6.778zm-4.745-5.444h4.745v3.81h-4.745v-3.81zm13.158 15.788c.958 0 2.043-.181 3.254-.544v-1.633h-3.931a.919.919 0 00-.678.272.924.924 0 00-.271.68v.273c0 .272.09.499.271.68a.919.919 0 00.678.272h.677zm-5.015-10.616c3.307-.363 6.29-.545 8.947-.545 1.229 0 2.214.372 2.955 1.116.741.745 1.112 1.734 1.112 2.968v10.616h-4.203l-.271-1.36a9.945 9.945 0 01-2.63 1.251c-.885.255-1.636.381-2.25.381h-.949c-1.229 0-2.214-.372-2.955-1.116-.742-.744-1.112-1.733-1.112-2.967v-1.225c0-1.234.37-2.223 1.112-2.967.741-.744 1.726-1.116 2.955-1.116h5.558v-1.089a.924.924 0 00-.949-.953c-1.175 0-2.476.055-3.904.163-1.41.11-2.549.191-3.416.245V8.358zm22.767 14.155a23.437 23.437 0 01-3.47.272c-1.085 0-1.998-.372-2.739-1.116-.741-.744-1.111-1.733-1.111-2.967V3.458h4.744v14.564c0 .272.091.499.272.68.18.182.406.272.677.272h1.627v3.54zm7.045 0h-4.88V3.458h15.048v3.81h-10.168v4.493h7.999v3.81h-7.999v6.942zm17.76-13.883v13.883h-4.745V12.305h-2.034V8.63h6.779zm-4.745-5.444h4.745v3.81h-4.745v-3.81zm15.463 8.574c-.958 0-2.043.182-3.254.545v10.208h-4.745V8.086h4.203l.271 1.36a9.417 9.417 0 012.603-1.224c.904-.273 1.663-.409 2.277-.409h1.22c1.23 0 2.215.372 2.956 1.116.741.745 1.111 1.734 1.111 2.968v10.616h-4.744v-9.8a.925.925 0 00-.272-.68.915.915 0 00-.677-.272h-.949zm19.247 10.753l-.271-1.36a9.96 9.96 0 01-2.63 1.251c-.886.255-1.636.381-2.251.381h-1.22c-1.229 0-2.214-.372-2.955-1.116-.741-.744-1.112-1.733-1.112-2.967v-6.26c0-1.362.38-2.424 1.139-3.186.777-.78 1.844-1.17 3.199-1.17h5.559V3.458h4.744v19.055h-4.202zm-3.796-3.675c.958 0 2.043-.181 3.254-.544V11.76h-4.067c-.723 0-1.085.364-1.085 1.09v5.036c0 .272.09.499.271.68a.919.919 0 00.678.272h.949zm16.265-7.622c-.723 0-1.085.363-1.085 1.089v1.497h4.609v-1.497c0-.726-.361-1.089-1.084-1.089h-2.44zm7.727 11.025c-3.489.363-6.652.544-9.49.544-1.229 0-2.214-.372-2.955-1.116-.741-.744-1.112-1.733-1.112-2.967V12.17c0-1.361.38-2.423 1.139-3.185.777-.78 1.844-1.17 3.2-1.17h5.422c1.356 0 2.413.39 3.172 1.17.778.762 1.166 1.824 1.166 3.185v5.036h-9.354v1.089a.928.928 0 00.949.953c1.79 0 4.411-.137 7.863-.409v3.403zm11.241-10.208c-1.138 0-2.313.272-3.524.816v9.664h-4.745V8.086h4.202l.272 1.769c1.554-1.361 3.181-2.042 4.88-2.042h1.22v4.22h-2.305zM70.12 43.774v-9.528h.691v8.902h5.464v.626H70.12zm10.156.054c-.678 0-1.283-.154-1.816-.463a3.487 3.487 0 01-1.261-1.279c-.307-.544-.461-1.166-.461-1.865 0-.707.154-1.33.46-1.864a3.49 3.49 0 011.262-1.28c.533-.308 1.138-.463 1.816-.463.678 0 1.284.155 1.817.463.533.309.953.735 1.26 1.28.308.535.462 1.157.462 1.864 0 .699-.154 1.32-.461 1.865-.308.544-.728.97-1.261 1.28-.533.308-1.139.462-1.817.462zm0-.612c.543 0 1.03-.123 1.464-.368a2.67 2.67 0 001.017-1.062c.244-.453.366-.975.366-1.565 0-.599-.122-1.12-.366-1.565a2.578 2.578 0 00-1.017-1.048 2.843 2.843 0 00-1.464-.381c-.542 0-1.03.127-1.464.38a2.696 2.696 0 00-1.017 1.049c-.244.445-.366.966-.366 1.565 0 .59.122 1.112.366 1.566.253.453.592.807 1.017 1.061.434.245.922.368 1.464.368zm5.438.558v-7.105h.65v1.946l-.067-.218c.199-.571.533-1.011 1.003-1.32.47-.308 1.058-.463 1.763-.463v.667h-.082a.254.254 0 00-.081-.013c-.787 0-1.401.25-1.844.748-.443.49-.664 1.175-.664 2.056v3.702h-.678zm7.821.054c-.714 0-1.347-.154-1.898-.463a3.425 3.425 0 01-1.288-1.279c-.308-.544-.461-1.166-.461-1.865 0-.707.144-1.33.434-1.864a3.318 3.318 0 011.22-1.28 3.312 3.312 0 011.735-.463c.642 0 1.216.15 1.722.45.515.299.917.72 1.206 1.265.298.536.448 1.157.448 1.865a.398.398 0 01-.014.095v.096h-6.25v-.531h5.884l-.271.258a2.884 2.884 0 00-.353-1.483 2.591 2.591 0 00-.962-1.035c-.407-.254-.877-.38-1.41-.38a2.65 2.65 0 00-1.41.38c-.407.245-.727.59-.962 1.035-.235.435-.353.934-.353 1.497v.123c0 .58.127 1.097.38 1.551.262.445.619.794 1.07 1.048.453.245.968.368 1.546.368a3.22 3.22 0 001.26-.245 2.483 2.483 0 001.004-.749l.393.45a2.954 2.954 0 01-1.166.87 3.9 3.9 0 01-1.504.286zm13.823-7.214c.569 0 1.062.114 1.478.34.424.218.754.554.989 1.008.235.444.353.998.353 1.66v4.152h-.678v-4.097c0-.799-.194-1.407-.583-1.824-.389-.418-.931-.626-1.627-.626-.533 0-.994.113-1.383.34a2.275 2.275 0 00-.894.953c-.208.408-.312.898-.312 1.47v3.784h-.678v-4.097c0-.799-.194-1.407-.583-1.824-.389-.418-.931-.626-1.627-.626-.533 0-.994.113-1.382.34a2.27 2.27 0 00-.895.953c-.208.408-.312.898-.312 1.47v3.784h-.678v-7.105h.65v1.96l-.094-.218c.208-.553.556-.99 1.044-1.307.488-.326 1.075-.49 1.762-.49.705 0 1.297.182 1.776.545.488.354.795.885.922 1.592l-.231-.095a2.773 2.773 0 011.071-1.47c.525-.381 1.162-.572 1.912-.572zm8.694 7.16v-7.105h.677v7.105h-.677zm.339-8.834a.537.537 0 01-.394-.163.524.524 0 01-.162-.381.54.54 0 01.162-.395.537.537 0 01.394-.163c.162 0 .293.054.393.163.108.1.162.227.162.381a.54.54 0 01-.162.395.508.508 0 01-.393.163zm6.544 8.888a3.344 3.344 0 01-1.695-.435 3.21 3.21 0 01-1.193-1.239c-.289-.544-.433-1.189-.433-1.933s.144-1.383.433-1.919a3.187 3.187 0 011.193-1.252 3.344 3.344 0 011.695-.436c.669 0 1.265.155 1.789.463.534.3.949.721 1.248 1.266.307.544.46 1.17.46 1.878s-.153 1.334-.46 1.879a3.26 3.26 0 01-1.248 1.279c-.524.3-1.12.45-1.789.45zm-3.552 2.586V36.67h.651v2.327l-.109 1.239.136 1.239v4.94h-.678zm3.511-3.198c.542 0 1.031-.123 1.464-.368a2.669 2.669 0 001.017-1.062c.253-.453.38-.975.38-1.565 0-.599-.127-1.12-.38-1.565a2.576 2.576 0 00-1.017-1.048 2.842 2.842 0 00-1.464-.381c-.542 0-1.03.127-1.464.38a2.695 2.695 0 00-1.017 1.049c-.244.445-.366.966-.366 1.565 0 .59.122 1.112.366 1.566.253.453.592.807 1.017 1.061.434.245.922.368 1.464.368zm7.223.612a5.18 5.18 0 01-1.654-.258c-.506-.173-.899-.39-1.179-.654l.312-.544c.271.236.632.44 1.084.612.452.164.94.245 1.464.245.741 0 1.275-.122 1.6-.367.325-.245.488-.567.488-.967 0-.29-.086-.517-.258-.68a1.544 1.544 0 00-.664-.395 6.238 6.238 0 00-.922-.218 40.063 40.063 0 01-1.003-.204 4.086 4.086 0 01-.922-.313 1.791 1.791 0 01-.678-.558c-.162-.245-.244-.567-.244-.966 0-.363.1-.69.299-.98.199-.29.497-.522.894-.695.398-.18.895-.272 1.492-.272.443 0 .885.064 1.328.19.452.128.818.296 1.098.505l-.312.544a2.87 2.87 0 00-1.003-.49c-.37-.1-.745-.15-1.125-.15-.687 0-1.193.127-1.518.381-.317.254-.475.572-.475.953 0 .3.082.54.244.722.172.172.398.308.678.408.28.09.588.168.922.231a20.8 20.8 0 011.003.19 4.1 4.1 0 01.922.314c.28.127.502.308.664.544.172.227.258.536.258.926s-.109.73-.325 1.02c-.208.291-.52.518-.936.681-.416.163-.926.245-1.532.245zm7.355 0c-.605 0-1.13-.109-1.572-.327a2.404 2.404 0 01-1.031-1.007c-.235-.453-.352-1.011-.352-1.674v-4.15h.678v4.097c0 .798.203 1.406.61 1.824.406.417.98.626 1.721.626.534 0 .995-.114 1.383-.34.389-.227.687-.545.895-.953.208-.418.312-.908.312-1.47V36.67h.678v7.105h-.651V41.8l.095.232a2.688 2.688 0 01-1.044 1.32c-.479.317-1.053.476-1.722.476zm14.803-7.214c.57 0 1.062.114 1.478.34.425.218.755.554.99 1.008.235.444.352.998.352 1.66v4.152h-.678v-4.097c0-.799-.194-1.407-.583-1.824-.388-.418-.931-.626-1.627-.626-.533 0-.994.113-1.382.34a2.27 2.27 0 00-.895.953c-.208.408-.312.898-.312 1.47v3.784h-.678v-4.097c0-.799-.194-1.407-.583-1.824-.388-.418-.93-.626-1.626-.626-.534 0-.995.113-1.383.34a2.27 2.27 0 00-.895.953c-.208.408-.312.898-.312 1.47v3.784h-.678v-7.105h.651v1.96l-.095-.218c.208-.553.556-.99 1.044-1.307.488-.326 1.076-.49 1.763-.49.704 0 1.296.182 1.775.545.488.354.796.885.922 1.592l-.23-.095a2.773 2.773 0 011.071-1.47c.524-.381 1.161-.572 1.911-.572zm11.419 7.214c-.66 0-1.256-.15-1.79-.449a3.384 3.384 0 01-1.247-1.28c-.307-.544-.461-1.17-.461-1.878 0-.717.154-1.343.461-1.878a3.284 3.284 0 011.247-1.266 3.511 3.511 0 011.79-.463c.623 0 1.184.146 1.681.436.506.29.904.703 1.193 1.239.298.535.447 1.18.447 1.932 0 .735-.144 1.375-.434 1.92a3.06 3.06 0 01-1.193 1.252c-.497.29-1.062.435-1.694.435zm.04-.612a2.85 2.85 0 001.451-.368 2.669 2.669 0 001.017-1.062c.253-.453.379-.975.379-1.565 0-.599-.126-1.12-.379-1.565a2.576 2.576 0 00-1.017-1.048 2.772 2.772 0 00-1.451-.381c-.542 0-1.03.127-1.464.38a2.7 2.7 0 00-1.016 1.049c-.244.445-.366.966-.366 1.565 0 .59.122 1.112.366 1.566a2.8 2.8 0 001.016 1.061c.434.245.922.368 1.464.368zm2.861.558v-2.328l.122-1.238-.136-1.239v-5.295h.678v10.1h-.664zm6.084.054c-.678 0-1.283-.154-1.816-.463a3.48 3.48 0 01-1.261-1.279c-.307-.544-.461-1.166-.461-1.865 0-.707.154-1.33.461-1.864a3.48 3.48 0 011.261-1.28c.533-.308 1.138-.463 1.816-.463.678 0 1.284.155 1.817.463.533.309.953.735 1.261 1.28.307.535.46 1.157.46 1.864 0 .699-.153 1.32-.46 1.865-.308.544-.728.97-1.261 1.28-.533.308-1.139.462-1.817.462zm0-.612c.542 0 1.03-.123 1.464-.368a2.669 2.669 0 001.017-1.062c.244-.453.366-.975.366-1.565 0-.599-.122-1.12-.366-1.565a2.576 2.576 0 00-1.017-1.048 2.844 2.844 0 00-1.464-.381c-.542 0-1.03.127-1.464.38a2.695 2.695 0 00-1.017 1.049c-.244.445-.366.966-.366 1.565 0 .59.122 1.112.366 1.566.253.453.592.807 1.017 1.061.434.245.922.368 1.464.368zm5.438.558v-10.1h.678v10.1h-.678zm6.097.054c-.678 0-1.283-.154-1.817-.463a3.485 3.485 0 01-1.26-1.279c-.308-.544-.461-1.166-.461-1.865 0-.707.153-1.33.461-1.864a3.485 3.485 0 011.26-1.28c.534-.308 1.139-.463 1.817-.463.678 0 1.283.155 1.817.463.533.309.953.735 1.26 1.28.308.535.461 1.157.461 1.864 0 .699-.153 1.32-.461 1.865-.307.544-.727.97-1.26 1.28-.534.308-1.139.462-1.817.462zm0-.612c.542 0 1.03-.123 1.464-.368a2.669 2.669 0 001.017-1.062c.244-.453.366-.975.366-1.565 0-.599-.122-1.12-.366-1.565a2.576 2.576 0 00-1.017-1.048 2.844 2.844 0 00-1.464-.381c-.542 0-1.03.127-1.464.38a2.695 2.695 0 00-1.017 1.049c-.244.445-.366.966-.366 1.565 0 .59.122 1.112.366 1.566.253.453.592.807 1.017 1.061.434.245.922.368 1.464.368zm5.438.558v-7.105h.65v1.946l-.067-.218c.198-.571.533-1.011 1.003-1.32.47-.308 1.057-.463 1.762-.463v.667h-.081a.252.252 0 00-.081-.013c-.787 0-1.401.25-1.844.748-.443.49-.664 1.175-.664 2.056v3.702h-.678zm10.2.054a5.176 5.176 0 01-1.654-.258c-.506-.173-.9-.39-1.18-.654l.312-.544c.271.236.633.44 1.085.612.451.164.939.245 1.464.245.741 0 1.274-.122 1.599-.367.326-.245.488-.567.488-.967 0-.29-.085-.517-.257-.68a1.55 1.55 0 00-.664-.395 6.299 6.299 0 00-.922-.218 38.31 38.31 0 01-1.003-.204 4.069 4.069 0 01-.922-.313 1.783 1.783 0 01-.678-.558c-.163-.245-.244-.567-.244-.966 0-.363.099-.69.298-.98.199-.29.497-.522.895-.695.397-.18.895-.272 1.491-.272.443 0 .886.064 1.329.19.451.128.817.296 1.098.505l-.312.544a2.878 2.878 0 00-1.003-.49c-.371-.1-.746-.15-1.126-.15-.686 0-1.193.127-1.518.381-.316.254-.474.572-.474.953 0 .3.081.54.244.722.171.172.397.308.677.408.281.09.588.168.922.231.335.055.669.118 1.004.19.334.073.641.178.921.314.281.127.502.308.665.544.171.227.257.536.257.926s-.108.73-.325 1.02c-.208.291-.52.518-.936.681-.415.163-.926.245-1.531.245zm4.481-.054v-7.105h.677v7.105h-.677zm.338-8.834a.536.536 0 01-.393-.163.524.524 0 01-.162-.381.54.54 0 01.162-.395.536.536 0 01.393-.163.51.51 0 01.394.163c.108.1.162.227.162.381a.54.54 0 01-.162.395.51.51 0 01-.394.163zm5.054 8.888c-.624 0-1.103-.172-1.437-.517-.326-.345-.488-.817-.488-1.416v-6.778h.677v6.71c0 .454.113.803.339 1.048.226.245.552.368.976.368.443 0 .809-.132 1.098-.395l.285.477a1.658 1.658 0 01-.664.38 2.542 2.542 0 01-.786.123zm-3.227-6.574v-.585h4.23v.585h-4.23z" fill="#222"/><defs><clipPath id="clip0_91_1250"><path fill="#fff" transform="translate(0 .3)" d="M0 0h48.804v49H0z"/></clipPath></defs></svg>