<svg width="0" height="0" xmlns="http://www.w3.org/2000/svg"><symbol id="ArrowUpRight" viewBox="0 0 16 16"><path d="M4 12l8-8M5.5 4H12v6.5" stroke-linecap="round" stroke-linejoin="round"/></symbol><symbol id="play" viewBox="0 0 19 22"><path d="M17 7.536c2.667 1.54 2.667 5.389 0 6.928L6.5 20.526c-2.667 1.54-6-.385-6-3.464V4.938c0-3.08 3.333-5.004 6-3.464L17 7.536z"/></symbol><symbol id="ok" viewBox="0 0 24 24"><path fill-rule="evenodd" clip-rule="evenodd" d="M0 12C0 5.373 5.373 0 12 0s12 5.373 12 12-5.373 12-12 12S0 18.627 0 12zm11.992.193c1.77 0 3.208-1.389 3.208-3.096C15.2 7.389 13.76 6 11.992 6c-1.77 0-3.208 1.39-3.208 3.097s1.439 3.096 3.208 3.096zm3.169 1.783c-.58.351-1.21.6-1.863.744l1.793 1.731a.884.884 0 010 1.283.963.963 0 01-1.328 0L12 16.034l-1.762 1.7a.956.956 0 01-.665.266.955.955 0 01-.664-.266.885.885 0 010-1.283l1.793-1.73a6.142 6.142 0 01-1.863-.745.889.889 0 01-.294-1.252.958.958 0 011.295-.285 4.198 4.198 0 004.32 0 .959.959 0 011.295.286.89.89 0 01-.294 1.25z"/><path d="M11.992 7.815c.732 0 1.328.575 1.328 1.282 0 .706-.596 1.282-1.328 1.282-.732 0-1.328-.576-1.328-1.282 0-.707.596-1.282 1.328-1.282z"/></symbol><symbol id="ig" viewBox="0 0 24 24"><path fill-rule="evenodd" clip-rule="evenodd" d="M12 0C5.373 0 0 5.373 0 12s5.373 12 12 12 12-5.373 12-12S18.627 0 12 0zM9.362 5.639c.682-.031.9-.039 2.639-.039h-.002c1.738 0 1.956.008 2.638.039.682.03 1.147.139 1.555.297.421.163.777.382 1.133.738s.575.713.739 1.134c.157.407.265.872.297 1.553.031.683.039.9.039 2.64 0 1.737-.008 1.955-.039 2.638-.032.68-.14 1.146-.297 1.553-.164.42-.383.778-.739 1.134a3.13 3.13 0 01-1.133.738c-.407.158-.872.266-1.554.297-.682.031-.9.04-2.638.04s-1.956-.009-2.639-.04c-.681-.03-1.146-.139-1.554-.297a3.133 3.133 0 01-1.133-.738 3.137 3.137 0 01-.738-1.134c-.158-.407-.266-.872-.297-1.554-.031-.682-.039-.9-.039-2.638s.008-1.956.039-2.639c.03-.681.138-1.146.297-1.553.164-.421.383-.778.739-1.134a3.134 3.134 0 011.133-.738c.407-.158.872-.266 1.554-.297z"/><path fill-rule="evenodd" clip-rule="evenodd" d="M11.427 6.753H12c1.708 0 1.911.006 2.586.037.624.029.963.133 1.188.22.299.117.512.255.736.48.224.223.362.437.479.735.087.226.192.564.22 1.188.03.675.037.877.037 2.586 0 1.708-.006 1.91-.037 2.585-.029.624-.133.963-.22 1.188a1.978 1.978 0 01-.48.735 1.979 1.979 0 01-.735.479c-.225.088-.564.192-1.188.22-.675.031-.878.038-2.586.038-1.71 0-1.912-.007-2.587-.038-.624-.028-.962-.133-1.188-.22a1.982 1.982 0 01-.736-.479 1.984 1.984 0 01-.479-.736c-.087-.225-.192-.564-.22-1.188-.031-.674-.037-.877-.037-2.586 0-1.71.006-1.91.037-2.585.028-.624.133-.963.22-1.189.116-.298.255-.512.479-.736.224-.224.437-.362.736-.479.226-.088.564-.192 1.188-.22.59-.027.82-.035 2.013-.036v.001zm3.99 1.063a.768.768 0 100 1.536.768.768 0 000-1.536zM8.714 12a3.287 3.287 0 116.574 0 3.287 3.287 0 01-6.574 0z"/><path d="M12 9.867a2.133 2.133 0 110 4.267 2.133 2.133 0 010-4.267z"/></symbol><symbol id="fb" viewBox="0 0 24 24"><path fill-rule="evenodd" clip-rule="evenodd" d="M12 0C5.373 0 0 5.373 0 12s5.373 12 12 12 12-5.373 12-12S18.627 0 12 0zm1.25 12.527v6.529h-2.7v-6.529H9.2v-2.25h1.35v-1.35C10.55 7.09 11.312 6 13.476 6h1.802v2.25h-1.127c-.842 0-.898.314-.898.901l-.003 1.126h2.04l-.238 2.25H13.25z"/></symbol><symbol id="vk" viewBox="0 0 24 24"><path fill-rule="evenodd" clip-rule="evenodd" d="M12 0C5.373 0 0 5.373 0 12s5.373 12 12 12 12-5.373 12-12S18.627 0 12 0zm.977 15.788c-.118.125-.35.15-.35.15h-.764s-1.688.1-3.175-1.42c-1.621-1.657-3.053-4.945-3.053-4.945s-.083-.216.007-.32c.1-.117.375-.125.375-.125l1.829-.011s.172.027.295.117c.103.073.16.21.16.21s.295.734.686 1.398c.765 1.296 1.12 1.58 1.38 1.44.378-.202.264-1.832.264-1.832s.007-.59-.19-.854c-.153-.205-.44-.264-.568-.28-.103-.014.066-.249.285-.354.33-.158.91-.167 1.597-.16.535.005.69.038.898.087.486.115.47.484.438 1.279-.01.238-.021.514-.021.832 0 .072-.002.148-.005.227-.01.407-.024.874.25 1.047.14.089.482.013 1.34-1.415.406-.677.71-1.473.71-1.473s.067-.142.17-.203c.106-.062.249-.043.249-.043l1.924-.012s.579-.068.672.19c.098.268-.216.896-1.002 1.924-.746.976-1.11 1.336-1.076 1.654.024.232.26.442.713.854.945.862 1.199 1.315 1.26 1.424l.011.02c.424.69-.47.744-.47.744l-1.71.023s-.367.072-.85-.254c-.253-.17-.5-.449-.736-.714-.36-.405-.693-.78-.976-.69-.477.148-.462 1.155-.462 1.155s.003.216-.105.33z"/></symbol><symbol id="yt" viewBox="0 0 24 24"><path fill-rule="evenodd" clip-rule="evenodd" d="M12 0C5.373 0 0 5.373 0 12s5.373 12 12 12 12-5.373 12-12S18.627 0 12 0zm5 7.875c.552.15.985.596 1.133 1.162.267 1.024.267 3.163.267 3.163s0 2.138-.267 3.163A1.625 1.625 0 0117 16.525c-.997.275-5 .275-5 .275s-4.003 0-5-.275a1.625 1.625 0 01-1.133-1.162C5.6 14.338 5.6 12.2 5.6 12.2s0-2.138.267-3.163A1.623 1.623 0 017 7.875c.997-.275 5-.275 5-.275s4.003 0 5 .275z"/><path d="M10.8 14.4v-4l3.2 2-3.2 2z"/></symbol><symbol id="wa" viewBox="0 0 24 24"><path fill-rule="evenodd" clip-rule="evenodd" d="M0 12c0 6.627 5.373 12 12 12s12-5.373 12-12S18.627 0 12 0 0 5.373 0 12zm19.531-.46c-.002 3.934-3.201 7.135-7.135 7.136h-.003a7.13 7.13 0 01-3.41-.868L5.2 18.8l1.012-3.698a7.123 7.123 0 01-.952-3.567c0-3.934 3.202-7.135 7.136-7.135 1.908 0 3.7.744 5.047 2.093a7.093 7.093 0 012.088 5.048z"/><path fill-rule="evenodd" clip-rule="evenodd" d="M6.913 17.105l2.245-.59.217.13c.91.54 1.954.826 3.018.826h.002a5.94 5.94 0 005.931-5.93 5.895 5.895 0 00-1.735-4.197 5.89 5.89 0 00-4.193-1.739 5.94 5.94 0 00-5.933 5.93c0 1.121.313 2.213.906 3.157l.141.224-.599 2.189zm8.833-4.028c.125.06.208.1.244.16.045.075.045.432-.104.848-.148.417-.86.797-1.203.848a2.443 2.443 0 01-1.123-.07 10.193 10.193 0 01-1.016-.376c-1.672-.722-2.801-2.342-3.015-2.648l-.031-.044-.002-.002c-.094-.126-.726-.97-.726-1.843 0-.82.403-1.251.589-1.45l.035-.037a.655.655 0 01.475-.223c.12 0 .238.001.342.006h.04c.104 0 .233 0 .361.306.05.118.121.294.197.478.154.374.323.786.353.846.044.09.074.193.015.313a7.454 7.454 0 00-.025.05 1.015 1.015 0 01-.154.247l-.091.11c-.061.074-.123.15-.176.202-.09.09-.182.186-.078.364.104.179.462.762.992 1.235.57.508 1.065.723 1.316.832.049.021.088.039.117.053.179.09.283.075.387-.044.104-.12.445-.521.564-.7.12-.178.238-.148.401-.089.164.06 1.04.491 1.219.58l.097.048z"/></symbol><symbol id="tg" viewBox="0 0 24 24"><path fill-rule="evenodd" clip-rule="evenodd" d="M0 12c0 6.627 5.373 12 12 12s12-5.373 12-12S18.627 0 12 0 0 5.373 0 12zm9.8 5.5l.204-3.059 5.565-5.022c.244-.216-.054-.322-.378-.125l-6.867 4.332-2.967-.926c-.64-.196-.645-.636.144-.952l11.56-4.458c.527-.24 1.037.127.835.935l-1.968 9.277c-.138.659-.536.816-1.088.512l-2.999-2.215L10.4 17.2l-.014.013c-.16.157-.294.287-.586.287z"/></symbol><symbol id="close-window" viewBox="0 0 48 48"><rect x=".5" y=".5" width="47" height="47" rx="23.5"/><path d="M28.5 19.5l-9 9m9 0l-9-9" fill="none" stroke-width="1.5" stroke-linecap="round" stroke-linejoin="round"/><rect x=".5" y=".5" width="47" height="47" rx="23.5" fill="none"/></symbol></svg>