<svg width="242" height="50" viewBox="0 0 242 50" fill="none" xmlns="http://www.w3.org/2000/svg">
<g clip-path="url(#clip0_91_1250)">
<path d="M12.6452 45.0056C18.0697 48.1448 24.5161 48.9956 30.5663 47.3705C36.6165 45.7455 41.7749 41.7779 44.9067 36.3406C48.0386 30.9032 48.8872 24.4414 47.2661 18.3768C45.6449 12.3122 41.6868 7.14156 36.2623 4.00228L12.6452 45.0056Z" fill="#FD4D4D"/>
<path d="M36.2623 4.00228C30.8378 0.863015 24.3914 0.0123079 18.3412 1.63731C12.291 3.26232 7.13261 7.22992 4.00079 12.6673C0.868973 18.1047 0.0202879 24.5664 1.64143 30.631C3.26258 36.6956 7.22077 41.8663 12.6452 45.0056L36.2623 4.00228Z" fill="#53E962"/>
</g>
<path d="M70.364 18.5661C75.3167 18.8383 78.6697 18.9744 80.423 18.9744C80.8387 18.9744 81.1641 18.8565 81.3991 18.6205C81.6521 18.3665 81.7787 18.0307 81.7787 17.6133V15.1633H75.5426C73.6447 15.1633 72.2619 14.7368 71.3943 13.8839C70.5448 13.0128 70.12 11.6244 70.12 9.71888V8.90222C70.12 6.99666 70.5448 5.6174 71.3943 4.76444C72.2619 3.89332 73.6447 3.45777 75.5426 3.45777H85.0594V7.26888H76.6272C75.5426 7.26888 75.0004 7.81333 75.0004 8.90222V9.44666C75.0004 10.5355 75.5426 11.08 76.6272 11.08H81.5075C83.2789 11.08 84.5804 11.4974 85.4118 12.3322C86.2433 13.167 86.659 14.4737 86.659 16.2522V17.6133C86.659 19.3918 86.2433 20.6985 85.4118 21.5333C84.5804 22.3681 83.2789 22.7855 81.5075 22.7855C80.5857 22.7855 79.6096 22.7674 78.5793 22.7311L76.0849 22.6222C74.2412 22.5315 72.3342 22.4044 70.364 22.2411V18.5661Z" fill="#222222"/>
<path d="M103.467 18.43C103.467 19.7911 103.078 20.8618 102.301 21.6422C101.542 22.4044 100.485 22.7855 99.129 22.7855H92.8929C91.5373 22.7855 90.4708 22.4044 89.6936 21.6422C88.9344 20.8618 88.5548 19.7911 88.5548 18.43V12.1689C88.5548 10.8078 88.9344 9.7461 89.6936 8.98388C90.4708 8.20351 91.5373 7.81333 92.8929 7.81333H99.129C100.485 7.81333 101.542 8.20351 102.301 8.98388C103.078 9.7461 103.467 10.8078 103.467 12.1689V18.43ZM98.7223 12.5772C98.7223 11.8513 98.3608 11.4883 97.6377 11.4883H94.3842C93.6611 11.4883 93.2996 11.8513 93.2996 12.5772V18.0217C93.2996 18.7476 93.6611 19.1105 94.3842 19.1105H97.6377C98.3608 19.1105 98.7223 18.7476 98.7223 18.0217V12.5772Z" fill="#222222"/>
<path d="M118.647 22.2411C115.267 22.6041 112.285 22.7855 109.7 22.7855C108.471 22.7855 107.486 22.4135 106.745 21.6694C106.004 20.9254 105.633 19.9363 105.633 18.7022V12.4411C105.633 11.08 106.013 10.0183 106.772 9.2561C107.549 8.47573 108.615 8.08555 109.971 8.08555H118.647V11.7605H111.462C110.739 11.7605 110.378 12.1235 110.378 12.8494V18.1578C110.378 18.43 110.468 18.6568 110.649 18.8383C110.83 19.0198 111.056 19.1105 111.327 19.1105C112.954 19.1105 115.394 18.9744 118.647 18.7022V22.2411Z" fill="#222222"/>
<path d="M126.776 8.62999V22.5133H122.031V12.305H119.998V8.62999H126.776ZM122.031 3.18555H126.776V6.99666H122.031V3.18555Z" fill="#222222"/>
<path d="M135.189 18.9744C136.147 18.9744 137.232 18.793 138.443 18.43V16.7967H134.512C134.241 16.7967 134.015 16.8874 133.834 17.0689C133.653 17.2504 133.563 17.4772 133.563 17.7494V18.0217C133.563 18.2939 133.653 18.5207 133.834 18.7022C134.015 18.8837 134.241 18.9744 134.512 18.9744H135.189ZM130.174 8.35777C133.481 7.99481 136.464 7.81333 139.121 7.81333C140.35 7.81333 141.335 8.18536 142.076 8.92944C142.817 9.67351 143.188 10.6626 143.188 11.8967V22.5133H138.985L138.714 21.1522C137.865 21.7148 136.988 22.1322 136.084 22.4044C135.199 22.6585 134.448 22.7855 133.834 22.7855H132.885C131.656 22.7855 130.671 22.4135 129.93 21.6694C129.188 20.9254 128.818 19.9363 128.818 18.7022V17.4772C128.818 16.2431 129.188 15.2541 129.93 14.51C130.671 13.7659 131.656 13.3939 132.885 13.3939H138.443V12.305C138.443 12.0328 138.353 11.8059 138.172 11.6244C137.991 11.443 137.765 11.3522 137.494 11.3522C136.319 11.3522 135.018 11.4067 133.59 11.5155C132.18 11.6244 131.041 11.7061 130.174 11.7605V8.35777Z" fill="#222222"/>
<path d="M152.941 22.5133C151.73 22.6948 150.573 22.7855 149.471 22.7855C148.386 22.7855 147.473 22.4135 146.732 21.6694C145.991 20.9254 145.621 19.9363 145.621 18.7022V3.45777H150.365V18.0217C150.365 18.2939 150.456 18.5207 150.637 18.7022C150.817 18.8837 151.043 18.9744 151.314 18.9744H152.941V22.5133Z" fill="#222222"/>
<path d="M159.986 22.5133H155.106V3.45777H170.154V7.26888H159.986V11.7605H167.985V15.5717H159.986V22.5133Z" fill="#222222"/>
<path d="M177.746 8.62999V22.5133H173.001V12.305H170.967V8.62999H177.746ZM173.001 3.18555H177.746V6.99666H173.001V3.18555Z" fill="#222222"/>
<path d="M188.464 11.7605C187.506 11.7605 186.421 11.942 185.21 12.305V22.5133H180.465V8.08555H184.668L184.939 9.44666C185.789 8.88407 186.656 8.47573 187.542 8.22166C188.446 7.94944 189.205 7.81333 189.819 7.81333H191.039C192.269 7.81333 193.254 8.18536 193.995 8.92944C194.736 9.67351 195.106 10.6626 195.106 11.8967V22.5133H190.362V12.7133C190.362 12.4411 190.271 12.2143 190.09 12.0328C189.91 11.8513 189.684 11.7605 189.413 11.7605H188.464Z" fill="#222222"/>
<path d="M207.711 22.5133L207.44 21.1522C206.59 21.7148 205.714 22.1322 204.81 22.4044C203.924 22.6585 203.174 22.7855 202.559 22.7855H201.339C200.11 22.7855 199.125 22.4135 198.384 21.6694C197.643 20.9254 197.272 19.9363 197.272 18.7022V12.4411C197.272 11.08 197.652 10.0183 198.411 9.2561C199.188 8.47573 200.255 8.08555 201.61 8.08555H207.169V3.45777H211.913V22.5133H207.711ZM203.915 18.8383C204.873 18.8383 205.958 18.6568 207.169 18.2939V11.7605H203.102C202.379 11.7605 202.017 12.1235 202.017 12.8494V17.8855C202.017 18.1578 202.107 18.3846 202.288 18.5661C202.469 18.7476 202.695 18.8383 202.966 18.8383H203.915Z" fill="#222222"/>
<path d="M220.18 11.2161C219.457 11.2161 219.095 11.5791 219.095 12.305V13.8022H223.704V12.305C223.704 11.5791 223.343 11.2161 222.62 11.2161H220.18ZM227.907 22.2411C224.418 22.6041 221.255 22.7855 218.417 22.7855C217.188 22.7855 216.203 22.4135 215.462 21.6694C214.721 20.9254 214.35 19.9363 214.35 18.7022V12.1689C214.35 10.8078 214.73 9.7461 215.489 8.98388C216.266 8.20351 217.333 7.81333 218.689 7.81333H224.111C225.467 7.81333 226.524 8.20351 227.283 8.98388C228.061 9.7461 228.449 10.8078 228.449 12.1689V17.205H219.095V18.2939C219.095 18.5661 219.186 18.793 219.366 18.9744C219.547 19.1559 219.773 19.2467 220.044 19.2467C221.834 19.2467 224.455 19.1105 227.907 18.8383V22.2411Z" fill="#222222"/>
<path d="M239.148 12.0328C238.01 12.0328 236.835 12.305 235.624 12.8494V22.5133H230.879V8.08555H235.081L235.353 9.85499C236.907 8.49388 238.534 7.81333 240.233 7.81333H241.453V12.0328H239.148Z" fill="#222222"/>
<path d="M70.12 43.7738V34.246H70.8114V43.1476H76.2747V43.7738H70.12Z" fill="#222222"/>
<path d="M80.2762 43.8282C79.5984 43.8282 78.9929 43.6739 78.4596 43.3654C77.9354 43.0569 77.5152 42.6304 77.1989 42.086C76.8916 41.5415 76.7379 40.92 76.7379 40.2213C76.7379 39.5135 76.8916 38.8919 77.1989 38.3565C77.5152 37.8121 77.9354 37.3856 78.4596 37.0771C78.9929 36.7686 79.5984 36.6143 80.2762 36.6143C80.954 36.6143 81.5596 36.7686 82.0928 37.0771C82.626 37.3856 83.0463 37.8121 83.3536 38.3565C83.6608 38.8919 83.8145 39.5135 83.8145 40.2213C83.8145 40.92 83.6608 41.5415 83.3536 42.086C83.0463 42.6304 82.626 43.0569 82.0928 43.3654C81.5596 43.6739 80.954 43.8282 80.2762 43.8282ZM80.2762 43.2157C80.8185 43.2157 81.3065 43.0932 81.7403 42.8482C82.1741 42.5941 82.513 42.2402 82.7571 41.7865C83.0011 41.3328 83.1231 40.8111 83.1231 40.2213C83.1231 39.6224 83.0011 39.1006 82.7571 38.656C82.513 38.2023 82.1741 37.8529 81.7403 37.6079C81.3065 37.3539 80.8185 37.2268 80.2762 37.2268C79.7339 37.2268 79.2459 37.3539 78.8121 37.6079C78.3873 37.8529 78.0484 38.2023 77.7954 38.656C77.5513 39.1006 77.4293 39.6224 77.4293 40.2213C77.4293 40.8111 77.5513 41.3328 77.7954 41.7865C78.0484 42.2402 78.3873 42.5941 78.8121 42.8482C79.2459 43.0932 79.7339 43.2157 80.2762 43.2157Z" fill="#222222"/>
<path d="M85.714 43.7738V36.6688H86.3647V38.6151L86.2969 38.3974C86.4958 37.8257 86.8301 37.3856 87.3001 37.0771C87.7701 36.7686 88.3575 36.6143 89.0625 36.6143V37.2813C89.0354 37.2813 89.0082 37.2813 88.9811 37.2813C88.954 37.2722 88.9269 37.2677 88.8998 37.2677C88.1135 37.2677 87.4989 37.5172 87.0561 38.0163C86.6132 38.5063 86.3918 39.1914 86.3918 40.0715V43.7738H85.714Z" fill="#222222"/>
<path d="M93.5346 43.8282C92.8206 43.8282 92.1879 43.6739 91.6366 43.3654C91.0944 43.0569 90.6651 42.6304 90.3488 42.086C90.0415 41.5415 89.8878 40.92 89.8878 40.2213C89.8878 39.5135 90.0324 38.8919 90.3216 38.3565C90.6199 37.8121 91.0266 37.3856 91.5417 37.0771C92.0569 36.7686 92.6353 36.6143 93.277 36.6143C93.9187 36.6143 94.4926 36.764 94.9987 37.0635C95.5138 37.3629 95.916 37.7849 96.2052 38.3293C96.5034 38.8647 96.6526 39.4863 96.6526 40.194C96.6526 40.2213 96.6481 40.253 96.639 40.2893C96.639 40.3165 96.639 40.3483 96.639 40.3846H90.3894V39.8538H96.273L96.0019 40.1124C96.0109 39.5589 95.8934 39.0643 95.6494 38.6288C95.4144 38.1841 95.0936 37.8393 94.6869 37.5943C94.2802 37.3402 93.8102 37.2132 93.277 37.2132C92.7528 37.2132 92.2828 37.3402 91.8671 37.5943C91.4604 37.8393 91.1396 38.1841 90.9046 38.6288C90.6696 39.0643 90.5521 39.5634 90.5521 40.126V40.2485C90.5521 40.8292 90.6786 41.3464 90.9317 41.8001C91.1938 42.2448 91.5508 42.5941 92.0027 42.8482C92.4545 43.0932 92.9697 43.2157 93.5481 43.2157C94 43.2157 94.4202 43.134 94.8089 42.9707C95.2065 42.8074 95.5409 42.5578 95.8121 42.2221L96.2052 42.6713C95.8979 43.0524 95.5093 43.3427 95.0393 43.5424C94.5784 43.7329 94.0768 43.8282 93.5346 43.8282Z" fill="#222222"/>
<path d="M107.358 36.6143C107.927 36.6143 108.42 36.7277 108.836 36.9546C109.26 37.1724 109.59 37.5081 109.825 37.9618C110.06 38.4064 110.178 38.96 110.178 39.6224V43.7738H109.5V39.6768C109.5 38.8783 109.306 38.2703 108.917 37.8529C108.528 37.4355 107.986 37.2268 107.29 37.2268C106.757 37.2268 106.296 37.3402 105.907 37.5671C105.519 37.7939 105.221 38.1115 105.013 38.5199C104.805 38.9282 104.701 39.4182 104.701 39.9899V43.7738H104.023V39.6768C104.023 38.8783 103.829 38.2703 103.44 37.8529C103.051 37.4355 102.509 37.2268 101.813 37.2268C101.28 37.2268 100.819 37.3402 100.431 37.5671C100.042 37.7939 99.7436 38.1115 99.5358 38.5199C99.3279 38.9282 99.224 39.4182 99.224 39.9899V43.7738H98.5461V36.6688H99.1969V38.6288L99.102 38.411C99.3098 37.8575 99.6578 37.4219 100.146 37.1043C100.634 36.7777 101.221 36.6143 101.908 36.6143C102.613 36.6143 103.205 36.7958 103.684 37.1588C104.172 37.5126 104.479 38.0435 104.606 38.7513L104.375 38.656C104.565 38.048 104.922 37.558 105.446 37.186C105.971 36.8049 106.608 36.6143 107.358 36.6143Z" fill="#222222"/>
<path d="M116.052 43.7738V36.6688H116.729V43.7738H116.052ZM116.391 34.9401C116.237 34.9401 116.106 34.8857 115.997 34.7768C115.889 34.6679 115.835 34.5409 115.835 34.3957C115.835 34.2414 115.889 34.1099 115.997 34.001C116.106 33.8921 116.237 33.8377 116.391 33.8377C116.553 33.8377 116.684 33.8921 116.784 34.001C116.892 34.1008 116.946 34.2278 116.946 34.3821C116.946 34.5364 116.892 34.6679 116.784 34.7768C116.684 34.8857 116.553 34.9401 116.391 34.9401Z" fill="#222222"/>
<path d="M122.935 43.8282C122.311 43.8282 121.746 43.683 121.24 43.3926C120.743 43.1023 120.346 42.6894 120.047 42.154C119.758 41.6096 119.614 40.9653 119.614 40.2213C119.614 39.4772 119.758 38.8375 120.047 38.3021C120.346 37.7576 120.743 37.3402 121.24 37.0499C121.746 36.7595 122.311 36.6143 122.935 36.6143C123.604 36.6143 124.2 36.7686 124.724 37.0771C125.258 37.3765 125.673 37.7985 125.972 38.3429C126.279 38.8874 126.432 39.5135 126.432 40.2213C126.432 40.929 126.279 41.5552 125.972 42.0996C125.673 42.644 125.258 43.0705 124.724 43.379C124.2 43.6785 123.604 43.8282 122.935 43.8282ZM119.383 46.4143V36.6688H120.034V38.9963L119.925 40.2349L120.061 41.4735V46.4143H119.383ZM122.894 43.2157C123.436 43.2157 123.925 43.0932 124.358 42.8482C124.792 42.5941 125.131 42.2402 125.375 41.7865C125.628 41.3328 125.755 40.8111 125.755 40.2213C125.755 39.6224 125.628 39.1006 125.375 38.656C125.131 38.2023 124.792 37.8529 124.358 37.6079C123.925 37.3539 123.436 37.2268 122.894 37.2268C122.352 37.2268 121.864 37.3539 121.43 37.6079C121.005 37.8529 120.666 38.2023 120.413 38.656C120.169 39.1006 120.047 39.6224 120.047 40.2213C120.047 40.8111 120.169 41.3328 120.413 41.7865C120.666 42.2402 121.005 42.5941 121.43 42.8482C121.864 43.0932 122.352 43.2157 122.894 43.2157Z" fill="#222222"/>
<path d="M130.117 43.8282C129.53 43.8282 128.978 43.742 128.463 43.5696C127.957 43.3972 127.564 43.1794 127.284 42.9163L127.596 42.3718C127.867 42.6077 128.228 42.8119 128.68 42.9843C129.132 43.1476 129.62 43.2293 130.144 43.2293C130.885 43.2293 131.419 43.1068 131.744 42.8618C132.069 42.6168 132.232 42.2947 132.232 41.8954C132.232 41.6051 132.146 41.3782 131.974 41.2149C131.812 41.0425 131.59 40.9109 131.31 40.8201C131.03 40.7294 130.723 40.6568 130.388 40.6024C130.054 40.5389 129.72 40.4708 129.385 40.3982C129.051 40.3256 128.743 40.2213 128.463 40.0851C128.183 39.949 127.957 39.763 127.785 39.5271C127.623 39.2821 127.541 38.96 127.541 38.5607C127.541 38.1977 127.641 37.8711 127.84 37.5807C128.039 37.2903 128.337 37.0589 128.734 36.8865C129.132 36.7051 129.629 36.6143 130.226 36.6143C130.669 36.6143 131.111 36.6778 131.554 36.8049C132.006 36.9319 132.372 37.0998 132.652 37.3085L132.34 37.8529C132.042 37.6261 131.708 37.4627 131.337 37.3629C130.967 37.2631 130.592 37.2132 130.212 37.2132C129.525 37.2132 129.019 37.3402 128.694 37.5943C128.377 37.8484 128.219 38.166 128.219 38.5471C128.219 38.8465 128.301 39.087 128.463 39.2685C128.635 39.4409 128.861 39.577 129.141 39.6768C129.421 39.7676 129.729 39.8447 130.063 39.9082C130.397 39.9626 130.732 40.0262 131.066 40.0988C131.401 40.1714 131.708 40.2757 131.988 40.4118C132.268 40.5389 132.49 40.7203 132.652 40.9563C132.824 41.1831 132.91 41.4916 132.91 41.8818C132.91 42.272 132.801 42.6123 132.585 42.9026C132.377 43.193 132.065 43.4199 131.649 43.5832C131.233 43.7465 130.723 43.8282 130.117 43.8282Z" fill="#222222"/>
<path d="M137.472 43.8282C136.867 43.8282 136.342 43.7193 135.9 43.5015C135.457 43.2747 135.113 42.9389 134.869 42.4943C134.634 42.0406 134.517 41.4826 134.517 40.8201V36.6688H135.195V40.7657C135.195 41.5642 135.398 42.1722 135.805 42.5896C136.211 43.007 136.785 43.2157 137.526 43.2157C138.06 43.2157 138.521 43.1023 138.909 42.8754C139.298 42.6486 139.596 42.331 139.804 41.9227C140.012 41.5052 140.116 41.0152 140.116 40.4527V36.6688H140.794V43.7738H140.143V41.8001L140.238 42.0315C140.03 42.5851 139.682 43.0252 139.194 43.3518C138.715 43.6694 138.141 43.8282 137.472 43.8282Z" fill="#222222"/>
<path d="M152.275 36.6143C152.845 36.6143 153.337 36.7277 153.753 36.9546C154.178 37.1724 154.508 37.5081 154.743 37.9618C154.978 38.4064 155.095 38.96 155.095 39.6224V43.7738H154.417V39.6768C154.417 38.8783 154.223 38.2703 153.834 37.8529C153.446 37.4355 152.903 37.2268 152.207 37.2268C151.674 37.2268 151.213 37.3402 150.825 37.5671C150.436 37.7939 150.138 38.1115 149.93 38.5199C149.722 38.9282 149.618 39.4182 149.618 39.9899V43.7738H148.94V39.6768C148.94 38.8783 148.746 38.2703 148.357 37.8529C147.969 37.4355 147.427 37.2268 146.731 37.2268C146.197 37.2268 145.736 37.3402 145.348 37.5671C144.959 37.7939 144.661 38.1115 144.453 38.5199C144.245 38.9282 144.141 39.4182 144.141 39.9899V43.7738H143.463V36.6688H144.114V38.6288L144.019 38.411C144.227 37.8575 144.575 37.4219 145.063 37.1043C145.551 36.7777 146.139 36.6143 146.826 36.6143C147.53 36.6143 148.122 36.7958 148.601 37.1588C149.089 37.5126 149.397 38.0435 149.523 38.7513L149.293 38.656C149.483 38.048 149.84 37.558 150.364 37.186C150.888 36.8049 151.525 36.6143 152.275 36.6143Z" fill="#222222"/>
<path d="M163.694 43.8282C163.034 43.8282 162.438 43.6785 161.904 43.379C161.38 43.0705 160.964 42.644 160.657 42.0996C160.35 41.5552 160.196 40.929 160.196 40.2213C160.196 39.5044 160.35 38.8783 160.657 38.3429C160.964 37.7985 161.38 37.3765 161.904 37.0771C162.438 36.7686 163.034 36.6143 163.694 36.6143C164.317 36.6143 164.878 36.7595 165.375 37.0499C165.881 37.3402 166.279 37.7531 166.568 38.2885C166.866 38.8239 167.015 39.4681 167.015 40.2213C167.015 40.9563 166.871 41.596 166.581 42.1404C166.292 42.6849 165.894 43.1023 165.388 43.3926C164.891 43.683 164.326 43.8282 163.694 43.8282ZM163.734 43.2157C164.277 43.2157 164.76 43.0932 165.185 42.8482C165.619 42.5941 165.958 42.2402 166.202 41.7865C166.455 41.3328 166.581 40.8111 166.581 40.2213C166.581 39.6224 166.455 39.1006 166.202 38.656C165.958 38.2023 165.619 37.8529 165.185 37.6079C164.76 37.3539 164.277 37.2268 163.734 37.2268C163.192 37.2268 162.704 37.3539 162.27 37.6079C161.846 37.8529 161.507 38.2023 161.254 38.656C161.01 39.1006 160.888 39.6224 160.888 40.2213C160.888 40.8111 161.01 41.3328 161.254 41.7865C161.507 42.2402 161.846 42.5941 162.27 42.8482C162.704 43.0932 163.192 43.2157 163.734 43.2157ZM166.595 43.7738V41.4463L166.717 40.2076L166.581 38.969V33.6743H167.259V43.7738H166.595Z" fill="#222222"/>
<path d="M172.679 43.8282C172.001 43.8282 171.396 43.6739 170.863 43.3654C170.338 43.0569 169.918 42.6304 169.602 42.086C169.295 41.5415 169.141 40.92 169.141 40.2213C169.141 39.5135 169.295 38.8919 169.602 38.3565C169.918 37.8121 170.338 37.3856 170.863 37.0771C171.396 36.7686 172.001 36.6143 172.679 36.6143C173.357 36.6143 173.963 36.7686 174.496 37.0771C175.029 37.3856 175.449 37.8121 175.757 38.3565C176.064 38.8919 176.217 39.5135 176.217 40.2213C176.217 40.92 176.064 41.5415 175.757 42.086C175.449 42.6304 175.029 43.0569 174.496 43.3654C173.963 43.6739 173.357 43.8282 172.679 43.8282ZM172.679 43.2157C173.221 43.2157 173.709 43.0932 174.143 42.8482C174.577 42.5941 174.916 42.2402 175.16 41.7865C175.404 41.3328 175.526 40.8111 175.526 40.2213C175.526 39.6224 175.404 39.1006 175.16 38.656C174.916 38.2023 174.577 37.8529 174.143 37.6079C173.709 37.3539 173.221 37.2268 172.679 37.2268C172.137 37.2268 171.649 37.3539 171.215 37.6079C170.79 37.8529 170.451 38.2023 170.198 38.656C169.954 39.1006 169.832 39.6224 169.832 40.2213C169.832 40.8111 169.954 41.3328 170.198 41.7865C170.451 42.2402 170.79 42.5941 171.215 42.8482C171.649 43.0932 172.137 43.2157 172.679 43.2157Z" fill="#222222"/>
<path d="M178.117 43.7738V33.6743H178.795V43.7738H178.117Z" fill="#222222"/>
<path d="M184.214 43.8282C183.536 43.8282 182.931 43.6739 182.397 43.3654C181.873 43.0569 181.453 42.6304 181.137 42.086C180.829 41.5415 180.676 40.92 180.676 40.2213C180.676 39.5135 180.829 38.8919 181.137 38.3565C181.453 37.8121 181.873 37.3856 182.397 37.0771C182.931 36.7686 183.536 36.6143 184.214 36.6143C184.892 36.6143 185.497 36.7686 186.031 37.0771C186.564 37.3856 186.984 37.8121 187.291 38.3565C187.599 38.8919 187.752 39.5135 187.752 40.2213C187.752 40.92 187.599 41.5415 187.291 42.086C186.984 42.6304 186.564 43.0569 186.031 43.3654C185.497 43.6739 184.892 43.8282 184.214 43.8282ZM184.214 43.2157C184.756 43.2157 185.244 43.0932 185.678 42.8482C186.112 42.5941 186.451 42.2402 186.695 41.7865C186.939 41.3328 187.061 40.8111 187.061 40.2213C187.061 39.6224 186.939 39.1006 186.695 38.656C186.451 38.2023 186.112 37.8529 185.678 37.6079C185.244 37.3539 184.756 37.2268 184.214 37.2268C183.672 37.2268 183.184 37.3539 182.75 37.6079C182.325 37.8529 181.986 38.2023 181.733 38.656C181.489 39.1006 181.367 39.6224 181.367 40.2213C181.367 40.8111 181.489 41.3328 181.733 41.7865C181.986 42.2402 182.325 42.5941 182.75 42.8482C183.184 43.0932 183.672 43.2157 184.214 43.2157Z" fill="#222222"/>
<path d="M189.652 43.7738V36.6688H190.302V38.6151L190.235 38.3974C190.433 37.8257 190.768 37.3856 191.238 37.0771C191.708 36.7686 192.295 36.6143 193 36.6143V37.2813C192.973 37.2813 192.946 37.2813 192.919 37.2813C192.892 37.2722 192.865 37.2677 192.838 37.2677C192.051 37.2677 191.437 37.5172 190.994 38.0163C190.551 38.5063 190.33 39.1914 190.33 40.0715V43.7738H189.652Z" fill="#222222"/>
<path d="M199.852 43.8282C199.264 43.8282 198.713 43.742 198.198 43.5696C197.692 43.3972 197.298 43.1794 197.018 42.9163L197.33 42.3718C197.601 42.6077 197.963 42.8119 198.415 42.9843C198.866 43.1476 199.354 43.2293 199.879 43.2293C200.62 43.2293 201.153 43.1068 201.478 42.8618C201.804 42.6168 201.966 42.2947 201.966 41.8954C201.966 41.6051 201.881 41.3782 201.709 41.2149C201.546 41.0425 201.325 40.9109 201.045 40.8201C200.764 40.7294 200.457 40.6568 200.123 40.6024C199.788 40.5389 199.454 40.4708 199.12 40.3982C198.785 40.3256 198.478 40.2213 198.198 40.0851C197.917 39.949 197.692 39.763 197.52 39.5271C197.357 39.2821 197.276 38.96 197.276 38.5607C197.276 38.1977 197.375 37.8711 197.574 37.5807C197.773 37.2903 198.071 37.0589 198.469 36.8865C198.866 36.7051 199.364 36.6143 199.96 36.6143C200.403 36.6143 200.846 36.6778 201.289 36.8049C201.74 36.9319 202.106 37.0998 202.387 37.3085L202.075 37.8529C201.777 37.6261 201.442 37.4627 201.072 37.3629C200.701 37.2631 200.326 37.2132 199.946 37.2132C199.26 37.2132 198.753 37.3402 198.428 37.5943C198.112 37.8484 197.954 38.166 197.954 38.5471C197.954 38.8465 198.035 39.087 198.198 39.2685C198.369 39.4409 198.595 39.577 198.875 39.6768C199.156 39.7676 199.463 39.8447 199.797 39.9082C200.132 39.9626 200.466 40.0262 200.801 40.0988C201.135 40.1714 201.442 40.2757 201.722 40.4118C202.003 40.5389 202.224 40.7203 202.387 40.9563C202.558 41.1831 202.644 41.4916 202.644 41.8818C202.644 42.272 202.536 42.6123 202.319 42.9026C202.111 43.193 201.799 43.4199 201.383 43.5832C200.968 43.7465 200.457 43.8282 199.852 43.8282Z" fill="#222222"/>
<path d="M204.333 43.7738V36.6688H205.01V43.7738H204.333ZM204.671 34.9401C204.518 34.9401 204.387 34.8857 204.278 34.7768C204.17 34.6679 204.116 34.5409 204.116 34.3957C204.116 34.2414 204.17 34.1099 204.278 34.001C204.387 33.8921 204.518 33.8377 204.671 33.8377C204.834 33.8377 204.965 33.8921 205.065 34.001C205.173 34.1008 205.227 34.2278 205.227 34.3821C205.227 34.5364 205.173 34.6679 205.065 34.7768C204.965 34.8857 204.834 34.9401 204.671 34.9401Z" fill="#222222"/>
<path d="M209.725 43.8282C209.101 43.8282 208.622 43.6558 208.288 43.311C207.962 42.9662 207.8 42.4943 207.8 41.8954V35.1171H208.477V41.8274C208.477 42.2811 208.59 42.6304 208.816 42.8754C209.042 43.1204 209.368 43.2429 209.792 43.2429C210.235 43.2429 210.601 43.1114 210.89 42.8482L211.175 43.3246C210.994 43.497 210.773 43.624 210.511 43.7057C210.258 43.7874 209.996 43.8282 209.725 43.8282ZM206.498 37.254V36.6688H210.728V37.254H206.498Z" fill="#222222"/>
<defs>
<clipPath id="clip0_91_1250">
<rect width="48.8037" height="49" fill="white" transform="translate(0 0.300049)"/>
</clipPath>
</defs>
</svg>
