<svg width="0" height="0" xmlns="http://www.w3.org/2000/svg">
	<symbol id="ArrowUpRight" viewBox="0 0 16 16">
        <path d="M4 12L12 4" stroke-linecap="round" stroke-linejoin="round"/>
        <path d="M5.5 4H12V10.5" stroke-linecap="round" stroke-linejoin="round"/>
    </symbol>
    <symbol id="play" viewBox="0 0 19 22">
        <path d="M17 7.5359C19.6667 9.0755 19.6667 12.9245 17 14.4641L6.5 20.5263C3.83333 22.0659 0.499999 20.1414 0.499999 17.0622L0.5 4.93782C0.5 1.85862 3.83333 -0.0658809 6.5 1.47372L17 7.5359Z"/>
    </symbol>
    <symbol id="ok" viewBox="0 0 24 24">
        <path fill-rule="evenodd" clip-rule="evenodd" d="M0 12C0 5.37258 5.37258 0 12 0C18.6274 0 24 5.37258 24 12C24 18.6274 18.6274 24 12 24C5.37258 24 0 18.6274 0 12ZM11.9918 12.1927C13.7614 12.1927 15.1998 10.804 15.1998 9.09679C15.1998 7.38905 13.7614 6 11.9918 6C10.2227 6 8.78389 7.38905 8.78389 9.09679C8.78389 10.804 10.2227 12.1927 11.9918 12.1927ZM15.1608 13.9755C14.5807 14.3272 13.951 14.5766 13.298 14.7202L15.0913 16.4514C15.4587 16.8053 15.4587 17.38 15.0913 17.7343C14.7243 18.0886 14.1295 18.0886 13.7629 17.7343L11.9997 16.0331L10.238 17.7343C10.0543 17.9113 9.81362 17.9998 9.57292 17.9998C9.33261 17.9998 9.09229 17.9113 8.9086 17.7343C8.54161 17.38 8.54161 16.8057 8.90822 16.4514L10.7017 14.7202C10.0488 14.5766 9.41898 14.3268 8.83893 13.9755C8.39995 13.7083 8.26809 13.1486 8.54468 12.7245C8.8205 12.2998 9.40056 12.172 9.8403 12.4392C11.1536 13.2366 12.8454 13.2368 14.1594 12.4392C14.5992 12.172 15.179 12.2998 15.4554 12.7245C15.732 13.1482 15.5998 13.7083 15.1608 13.9755Z"/>
        <path d="M11.9918 7.81482C12.7243 7.81482 13.3201 8.38975 13.3201 9.09678C13.3201 9.80326 12.7243 10.3786 11.9918 10.3786C11.2599 10.3786 10.6636 9.80326 10.6636 9.09678C10.6636 8.38975 11.2599 7.81482 11.9918 7.81482V7.81482Z"/>
    </symbol>
    <symbol id="ig" viewBox="0 0 24 24">
        <path fill-rule="evenodd" clip-rule="evenodd" d="M12 0C5.37258 0 0 5.37258 0 12C0 18.6274 5.37258 24 12 24C18.6274 24 24 18.6274 24 12C24 5.37258 18.6274 0 12 0ZM9.36164 5.63867C10.0443 5.6076 10.2624 5.6 12.0006 5.6H11.9986C13.7373 5.6 13.9546 5.6076 14.6373 5.63867C15.3186 5.66987 15.784 5.77774 16.192 5.936C16.6133 6.09934 16.9693 6.31801 17.3253 6.67401C17.6813 7.02975 17.9 7.38682 18.064 7.80776C18.2213 8.21469 18.3293 8.67976 18.3613 9.36111C18.392 10.0438 18.4 10.2619 18.4 12.0001C18.4 13.7382 18.392 13.9558 18.3613 14.6385C18.3293 15.3196 18.2213 15.7848 18.064 16.1918C17.9 16.6126 17.6813 16.9697 17.3253 17.3255C16.9697 17.6815 16.6132 17.9007 16.1924 18.0641C15.7852 18.2224 15.3196 18.3303 14.6382 18.3615C13.9556 18.3925 13.7381 18.4001 11.9998 18.4001C10.2618 18.4001 10.0438 18.3925 9.36111 18.3615C8.6799 18.3303 8.21469 18.2224 7.80749 18.0641C7.38682 17.9007 7.02975 17.6815 6.67414 17.3255C6.31827 16.9697 6.09961 16.6126 5.936 16.1917C5.77787 15.7848 5.67 15.3197 5.63867 14.6384C5.60773 13.9557 5.6 13.7382 5.6 12.0001C5.6 10.2619 5.608 10.0436 5.63853 9.36097C5.6692 8.6799 5.7772 8.21469 5.93587 7.80762C6.09987 7.38682 6.31854 7.02975 6.67454 6.67401C7.03028 6.31814 7.38735 6.09947 7.80829 5.936C8.21523 5.77774 8.6803 5.66987 9.36164 5.63867Z"/>
        <path fill-rule="evenodd" clip-rule="evenodd" d="M11.4265 6.75331C11.538 6.75313 11.6579 6.75319 11.7873 6.75325L12.0006 6.75331C13.7094 6.75331 13.912 6.75944 14.5868 6.79011C15.2108 6.81864 15.5495 6.92291 15.7751 7.01051C16.0737 7.12651 16.2867 7.26518 16.5105 7.48918C16.7345 7.71319 16.8732 7.92652 16.9895 8.22519C17.0771 8.45053 17.1815 8.7892 17.2099 9.4132C17.2406 10.0879 17.2472 10.2905 17.2472 11.9986C17.2472 13.7066 17.2406 13.9093 17.2099 14.5839C17.1813 15.2079 17.0771 15.5466 16.9895 15.7719C16.8735 16.0706 16.7345 16.2833 16.5105 16.5071C16.2865 16.7311 16.0739 16.8698 15.7751 16.9858C15.5497 17.0738 15.2108 17.1778 14.5868 17.2064C13.9121 17.237 13.7094 17.2437 12.0006 17.2437C10.2917 17.2437 10.0891 17.237 9.41447 17.2064C8.79046 17.1776 8.45179 17.0733 8.22606 16.9857C7.92739 16.8697 7.71405 16.731 7.49005 16.507C7.26605 16.283 7.12738 16.0702 7.01111 15.7714C6.92351 15.5461 6.81911 15.2074 6.79071 14.5834C6.76004 13.9087 6.75391 13.706 6.75391 11.997C6.75391 10.2879 6.76004 10.0863 6.79071 9.4116C6.81924 8.7876 6.92351 8.44893 7.01111 8.22332C7.12711 7.92465 7.26605 7.71132 7.49005 7.48732C7.71405 7.26331 7.92739 7.12465 8.22606 7.00838C8.45166 6.92038 8.79046 6.81638 9.41447 6.78771C10.0049 6.76104 10.2337 6.75304 11.4265 6.75171V6.75331ZM15.4169 7.81599C14.9929 7.81599 14.6489 8.15959 14.6489 8.58373C14.6489 9.00773 14.9929 9.35174 15.4169 9.35174C15.8409 9.35174 16.1849 9.00773 16.1849 8.58373C16.1849 8.15972 15.8409 7.81572 15.4169 7.81572V7.81599ZM8.71393 12C8.71393 10.185 10.1855 8.7134 12.0005 8.71333C13.8156 8.71333 15.2868 10.1849 15.2868 12C15.2868 13.8151 13.8157 15.2861 12.0006 15.2861C10.1855 15.2861 8.71393 13.8151 8.71393 12Z"/>
        <path d="M12.0006 9.8667C13.1787 9.8667 14.134 10.8218 14.134 12.0001C14.134 13.1782 13.1787 14.1334 12.0006 14.1334C10.8223 14.1334 9.86725 13.1782 9.86725 12.0001C9.86725 10.8218 10.8223 9.8667 12.0006 9.8667V9.8667Z"/>
    </symbol>
    <symbol id="fb" viewBox="0 0 24 24">
        <path fill-rule="evenodd" clip-rule="evenodd" d="M12 0C5.37258 0 0 5.37258 0 12C0 18.6274 5.37258 24 12 24C18.6274 24 24 18.6274 24 12C24 5.37258 18.6274 0 12 0ZM13.2508 12.5271V19.0557H10.5495V12.5274H9.2V10.2776H10.5495V8.92678C10.5495 7.0914 11.3116 6 13.4766 6H15.279V8.25006H14.1524C13.3096 8.25006 13.2538 8.56447 13.2538 9.15125L13.2508 10.2773H15.2918L15.053 12.5271H13.2508Z"/>
    </symbol>
    <symbol id="vk" viewBox="0 0 24 24">
        <path fill-rule="evenodd" clip-rule="evenodd" d="M12 0C5.37258 0 0 5.37258 0 12C0 18.6274 5.37258 24 12 24C18.6274 24 24 18.6274 24 12C24 5.37258 18.6274 0 12 0ZM12.9771 15.7881C12.8587 15.9128 12.6277 15.938 12.6277 15.938H11.8627C11.8627 15.938 10.1749 16.0376 8.68801 14.5185C7.06654 12.8611 5.63477 9.57277 5.63477 9.57277C5.63477 9.57277 5.55213 9.35707 5.64166 9.25321C5.74245 9.13584 6.01729 9.12847 6.01729 9.12847L7.84597 9.11679C7.84597 9.11679 8.01814 9.14444 8.14147 9.23355C8.24351 9.30729 8.30048 9.44433 8.30048 9.44433C8.30048 9.44433 8.59598 10.1781 8.98726 10.8418C9.75166 12.1378 10.1073 12.4211 10.3664 12.2822C10.7446 12.08 10.6313 10.4503 10.6313 10.4503C10.6313 10.4503 10.6381 9.85914 10.4409 9.59551C10.2882 9.39148 10.0002 9.33187 9.87312 9.31528C9.76982 9.30176 9.93885 9.06701 10.158 8.96193C10.4873 8.804 11.0682 8.79478 11.755 8.80154C12.2903 8.80707 12.4443 8.83964 12.6534 8.88941C13.1387 9.00437 13.1235 9.37276 13.0908 10.1678C13.0811 10.4056 13.0697 10.6816 13.0697 11.0003C13.0697 11.0719 13.0676 11.1483 13.0654 11.2268C13.0541 11.6342 13.0411 12.1006 13.3145 12.2742C13.4547 12.3627 13.7972 12.2871 14.6542 10.859C15.0606 10.1818 15.3648 9.38595 15.3648 9.38595C15.3648 9.38595 15.4318 9.244 15.5351 9.18316C15.6409 9.12109 15.7836 9.14014 15.7836 9.14014L17.7081 9.12847C17.7081 9.12847 18.2866 9.06025 18.3799 9.31713C18.4782 9.58567 18.1639 10.2137 17.3776 11.2424C16.6317 12.2185 16.2687 12.5779 16.302 12.8958C16.3264 13.128 16.5623 13.3381 17.0151 13.7503C17.9603 14.6117 18.2136 15.0649 18.2745 15.1738C18.2795 15.1829 18.2833 15.1895 18.286 15.1938C18.7098 15.884 17.8158 15.938 17.8158 15.938L16.1061 15.9614C16.1061 15.9614 15.7392 16.0327 15.2559 15.707C15.0027 15.5365 14.7553 15.2581 14.5197 14.9929C14.1598 14.5879 13.8274 14.2138 13.5436 14.3022C13.0672 14.4509 13.0816 15.4581 13.0816 15.4581C13.0816 15.4581 13.0854 15.6738 12.9771 15.7881Z"/>
    </symbol>
    <symbol id="yt" viewBox="0 0 24 24">
        <path fill-rule="evenodd" clip-rule="evenodd" d="M12 0C5.37258 0 0 5.37258 0 12C0 18.6274 5.37258 24 12 24C18.6274 24 24 18.6274 24 12C24 5.37258 18.6274 0 12 0ZM17.0008 7.87466C17.5516 8.0258 17.9853 8.47111 18.1325 9.03661C18.4 10.0615 18.4 12.2 18.4 12.2C18.4 12.2 18.4 14.3384 18.1325 15.3634C17.9853 15.9289 17.5516 16.3742 17.0008 16.5254C16.0027 16.8 12 16.8 12 16.8C12 16.8 7.99731 16.8 6.99913 16.5254C6.44836 16.3742 6.01462 15.9289 5.86742 15.3634C5.6 14.3384 5.6 12.2 5.6 12.2C5.6 12.2 5.6 10.0615 5.86742 9.03661C6.01462 8.47111 6.44836 8.0258 6.99913 7.87466C7.99731 7.6 12 7.6 12 7.6C12 7.6 16.0027 7.6 17.0008 7.87466Z"/>
        <path d="M10.8 14.4V10.4L14 12.4001L10.8 14.4Z"/>
    </symbol>
    <symbol id="wa" viewBox="0 0 24 24">
        <path fill-rule="evenodd" clip-rule="evenodd" d="M0 12C0 18.6274 5.37258 24 12 24C18.6274 24 24 18.6274 24 12C24 5.37258 18.6274 0 12 0C5.37258 0 0 5.37258 0 12ZM19.5311 11.5408C19.5295 15.4741 16.3297 18.6747 12.3955 18.6763H12.3926C11.1984 18.6758 10.0249 18.3762 8.98267 17.8077L5.2 18.8L6.21231 15.1024C5.58787 14.0203 5.25929 12.7927 5.25982 11.5351C5.26139 7.60085 8.46241 4.4 12.3955 4.4C14.3043 4.40082 16.0959 5.14393 17.4431 6.49271C18.7903 7.84141 19.5318 9.63417 19.5311 11.5408Z"/>
        <path fill-rule="evenodd" clip-rule="evenodd" d="M6.91325 17.1048L9.15794 16.5159L9.37451 16.6445C10.2851 17.1848 11.3289 17.4708 12.3931 17.4712H12.3955C15.6644 17.4712 18.325 14.8106 18.3263 11.5403C18.3269 9.95561 17.7106 8.46555 16.5908 7.3445C15.4711 6.22345 13.982 5.60577 12.3979 5.60522C9.12647 5.60522 6.4659 8.26556 6.4646 11.5355C6.46414 12.6562 6.7777 13.7476 7.37138 14.6918L7.5124 14.9162L6.91325 17.1048ZM15.7462 13.077C15.8706 13.1371 15.9545 13.1777 15.9904 13.2376C16.035 13.3119 16.035 13.6689 15.8865 14.0854C15.7378 14.5019 15.0255 14.882 14.683 14.9332C14.3758 14.9791 13.9871 14.9983 13.56 14.8625C13.301 14.7804 12.9689 14.6707 12.5436 14.4869C10.8721 13.7652 9.74253 12.1452 9.52904 11.839C9.51408 11.8176 9.50362 11.8026 9.49779 11.7948L9.49635 11.7929C9.40199 11.667 8.76977 10.8234 8.76977 9.95039C8.76977 9.12913 9.17319 8.69866 9.35888 8.50051C9.37161 8.48694 9.38331 8.47445 9.39378 8.46301C9.55721 8.28451 9.75038 8.23988 9.86923 8.23988C9.98808 8.23988 10.1071 8.24098 10.211 8.2462C10.2238 8.24684 10.2371 8.24676 10.2509 8.24668C10.3548 8.24607 10.4843 8.24532 10.6121 8.55226C10.6613 8.67038 10.7332 8.84551 10.8091 9.03021C10.9625 9.40371 11.132 9.81639 11.1618 9.87611C11.2064 9.96536 11.2361 10.0694 11.1767 10.1885C11.1678 10.2063 11.1595 10.2232 11.1516 10.2393C11.107 10.3304 11.0741 10.3974 10.9984 10.4859C10.9686 10.5207 10.9378 10.5582 10.907 10.5957C10.8457 10.6704 10.7843 10.7451 10.7309 10.7983C10.6417 10.8872 10.5488 10.9836 10.6528 11.1621C10.7568 11.3406 11.1146 11.9245 11.6446 12.3972C12.2144 12.9055 12.7096 13.1203 12.9606 13.2291C13.0096 13.2504 13.0493 13.2676 13.0784 13.2822C13.2567 13.3715 13.3607 13.3565 13.4647 13.2376C13.5687 13.1186 13.9104 12.7169 14.0292 12.5385C14.1481 12.36 14.267 12.3898 14.4304 12.4492C14.5938 12.5088 15.4704 12.9401 15.6487 13.0293C15.6835 13.0467 15.7161 13.0625 15.7462 13.077Z"/>
    </symbol>
    <symbol id="tg" viewBox="0 0 24 24">
        <path fill-rule="evenodd" clip-rule="evenodd" d="M0 12C0 18.6274 5.37258 24 12 24C18.6274 24 24 18.6274 24 12C24 5.37258 18.6274 0 12 0C5.37258 0 0 5.37258 0 12ZM9.8 17.5L10.0042 14.4411L10.004 14.441L15.5685 9.4195C15.8127 9.20276 15.5151 9.09707 15.1909 9.29366L8.32364 13.6262L5.35734 12.7003C4.71675 12.5042 4.71215 12.064 5.50116 11.7475L17.0602 7.29043C17.5881 7.05075 18.0976 7.41723 17.8961 8.22525L15.9276 17.5015C15.7901 18.1607 15.3919 18.3184 14.84 18.0139L11.8414 15.7985L10.4 17.2C10.3955 17.2044 10.3909 17.2088 10.3864 17.2132C10.2252 17.3701 10.0919 17.5 9.8 17.5Z"/>
    </symbol>
    <symbol id="close-window" viewBox="0 0 48 48">
        <rect x="0.5" y="0.5" width="47" height="47" rx="23.5" stroke="none"/>
        <path d="M28.5 19.5L19.5 28.5" fill="none" stroke-width="1.5" stroke-linecap="round" stroke-linejoin="round"/>
        <path d="M28.5 28.5L19.5 19.5" fill="none" stroke-width="1.5" stroke-linecap="round" stroke-linejoin="round"/>
        <rect x="0.5" y="0.5" width="47" height="47" rx="23.5" fill="none"/>
    </symbol>
</svg>